<?xml version="1.0" encoding="utf-8"?>
<!-- Generator: Adobe Illustrator 27.5.0, SVG Export Plug-In . SVG Version: 6.00 Build 0)  -->
<svg version="1.1" id="Слой_2" xmlns="http://www.w3.org/2000/svg" xmlns:xlink="http://www.w3.org/1999/xlink" x="0px" y="0px"
	 viewBox="0 0 2000 2000" style="enable-background:new 0 0 2000 2000;" xml:space="preserve">
<rect style="fill:#f1f5f9;" width="2000" height="2000"/>
<g>
	<path style="fill:#4B3584;" d="M1176.824,428.228l-21.343,7.114l-13.671,6l-21.642,6.386c0,0-15.042-30.771-18.984-38.442
		c-4.286-8.4-6.943-13.799-13.031-15.771c-7.286-1.726-14.571-3.451-21.856-5.176c-7.523-1.781-15.416-3.058-22.789-5.397
		c-0.743-0.236-0.755-0.478-0.865-1.212c-0.643-3.429-2.614-14.871-2.828-19.628c0.086-0.043,0.171-0.128,0.257-0.171
		c1.243-0.9,2.657-1.928,4.114-3.128c3.805-3.132,7.165-6.741,9.899-10.842c1.801-2.743,3.386-5.915,4.629-9.557
		c0.214-0.643,0.429-1.329,0.643-2.014c0.644-2.272,1.2-4.671,1.543-7.286c1.157-8.314-6.214-13.028-9.729-41.87
		c0,0-1.414-22.2-29.87-20.014c-4.227,0.325-8.432,1.189-12.6,1.929c-2.657,0.472-5.315,0.943-8.015,1.286
		c-7.028,0.943-13.885,1.071-19.456-1.714c-3.6-1.8-8.657-4.2-11.571-7.414c-1.414,8.571-1.414,17.614-2.1,26.271
		c-0.471,5.872,0.257,18.514,1.243,24.385c1.071,6,2.7,12,4.714,17.743c5.828,16.371,15.128,29.314,28.114,34.842l-3,18.214
		c0,0-19.928,4.2-19.928,4.843l-1.757,0.643c0,1.414-23.871,3.857-32.57,3.3c-2.058-14.871-4.071-30.728,2.143-44.399
		c1.971-4.372,4.714-8.357,6.686-12.728c3.514-7.629,4.671-16.328,3.214-24.643c-0.728-4.286-2.185-8.485-2.785-12.814
		c-1.372-9.3,1.8-30.17,12.128-44.185c-2.829-12.171,3.771-24.642,14.271-28.499c2.314-0.814,7.843-17.143,34.713-22.243
		c18.814-3.557,51.171-0.128,66.77,11.614c13.886,10.457,23.271,26.056,28.757,42.384c5.571,16.714-3.985,40.328,3.985,56.228
		c3.301,6.642,12.986,9.514,18.429,14.185c6,5.186,11.657,11.614,13.971,19.328c2.657,8.657-1.457,17.143-0.086,25.842
		c2.529,15.557,15.257,22.928,23.957,34.156C1175.41,412.072,1177.725,420.343,1176.824,428.228z"/>
	<path style="fill:#C6254F;" d="M971.072,865.018c8.1,0,15.685,0.771,22.714,2.271c-23.485,4.972-41.356,18.386-53.613,40.113
		c-15.942,28.242-24.514,73.884-25.628,136.883h-45.17c1.114-62.999,9.686-108.641,25.628-136.883
		C910.945,879.161,936.316,865.018,971.072,865.018z"/>
	<path style="fill:#C6254F;" d="M1350.349,963.672c0,47.271-10.414,93.469-31.199,138.64
		c-20.785,45.127-55.156,99.769-108.94,158.738c-44.056,48.299-73.369,82.884-93.555,127.154
		c-15.3,33.471-28.371,65.313-32.913,98.654h-45.171c4.543-33.342,15.514-66.255,32.914-98.654
		c17.356-32.442,48.556-74.827,93.555-127.154c51.855-60.684,88.154-113.611,108.982-158.738
		c20.785-45.171,31.156-91.369,31.156-138.64c0-65.141-17.613-119.525-52.841-163.153l-21.6-23.314
		c-3.257-3.086-6.643-6.129-10.157-9.086c-52.112-44.313-121.668-68.098-208.795-71.441c7.586-0.343,15.343-0.471,23.228-0.471
		c97.412,0,174.338,23.956,230.737,71.912C1322.149,816.034,1350.349,881.26,1350.349,963.672z"/>
	<path style="fill:#C6254F;" d="M1097.498,1675.513c-0.472,68.955-56.827,124.925-124.412,124.411h-45.17
		c68.741,0,124.411-55.671,124.411-124.411c0-67.327-53.484-122.184-120.34-124.283v-0.129h41.099
		C1041.785,1551.101,1097.969,1606.813,1097.498,1675.513z"/>
	<path style="fill:#E84673;" d="M1252.355,800.54c35.227,43.607,52.84,97.993,52.84,163.143c0,47.244-10.403,93.449-31.19,138.611
		c-20.808,45.161-57.123,98.079-108.959,158.755c-45.01,52.346-76.2,94.729-93.571,127.145
		c-17.387,32.43-28.349,65.312-32.901,98.658H812.115c1.132-43.53,10.962-86.501,29.481-128.879
		c18.508-42.383,46.279-86.035,83.32-130.966c6.836-8.341,17.093-20.376,30.765-36.13c68.364-79.66,102.549-154.003,102.549-223.024
		c0-32.881-7.562-58.245-22.649-76.077c-15.103-17.828-36.61-26.751-64.518-26.751c-34.758,0-60.112,14.132-76.058,42.383
		c-15.956,28.255-24.502,73.882-25.634,136.871H650.6v-18.063c0-107.919,28.907-189.907,86.741-245.952
		c57.814-56.04,141.987-84.07,252.519-84.07c97.423,0,174.334,23.968,230.731,71.908c3.498,2.973,6.887,6.012,10.168,9.117
		L1252.355,800.54z"/>
	<circle style="fill:#E84673;" cx="927.927" cy="1675.525" r="124.412"/>
	<g>
		<path style="fill:#F7AF4D;" d="M1133.84,544.197l-29.1,9.899c-0.985,4.157-1.714,7.372-1.586,7.329l0.129-0.043l18.899,49.07
			c14.871,36.17,1.757,81.427-23.228,92.698l-0.771,22.842H941.973l-0.772-25.071c-22.242-14.185-33.084-56.355-19.028-90.469
			l20.785-44.87l-43.456-7.2c-16.714,0-27.942-17.142-21.257-32.484l61.67-119.569c0.514-0.814,6.299-9.985,16.971-11.657
			c5.014-0.814,11.1-2.014,17.443-3.429c1.028,2.914,3.471,6.386,6.942,9.771c4.714,4.628,17.828,15.128,38.699,15.128h1.543
			c27.514-0.686,40.799-17.399,43.156-20.742c0.9-1.2,1.5-2.443,1.972-3.471l13.328,2.7c10.5,1.8,15.128,5.958,20.313,13.414
			c1.929,4.157,29.014,61.841,42.556,109.883C1148.067,536.483,1140.14,541.84,1133.84,544.197z"/>
		<path style="fill:#9F90C4;" d="M1023.656,861.889l-2.314,54.513c-0.943,13.414-12.472,23.571-21.771,20.871l-21.728-6.343
			c-8.399-2.443-12.857-14.357-9.771-26.057l17.314-65.355l0.343,1.628l0.043,16.714c0,10.543,6.257,19.157,14.957,20.485
			l0.343,0.043C1010.285,879.803,1020.742,872.518,1023.656,861.889z"/>
		<path style="fill:#9F90C4;" d="M1067.498,928.873l-21.984,7.328c-9.429,3.171-20.528-6.471-20.957-19.885l0.514-58.755
			c0.291,9.975,10.537,18.747,20.182,19.18c10.622,0.477,17.612-9.181,18.249-18.982c0.037-0.565,0.055-1.131,0.055-1.697v-14.743
			l0.386-2.229l14.399,63.213C1080.955,913.917,1076.026,926.045,1067.498,928.873z"/>
		<path style="fill:#F5AE9E;" d="M1083.955,725.993l-20.399,115.326c0,0,0,14.71,0,14.743c0,9.764-6.358,20.085-16.893,20.69
			c-10.7,0.614-20.079-9.104-21.593-19.19l-0.856,1.757c-0.471,10.251-10.978,19.269-21.037,19.226
			c-10.949-0.047-17.381-10.689-17.405-20.683l-0.043-16.714l-24.385-115.154H1083.955z"/>
		<path style="fill:#1D9A85;" d="M1132.168,534.512l0.086-22.071h9.343c-0.429-1.457-0.9-2.914-1.372-4.286h-7.928l0.086-22.114
			c0,0-0.086-0.214-0.172-0.557c-0.043-0.128-0.086-0.257-0.171-0.386c-0.857-2.571-3.343-9.729-4.2-12.128v8.786h-21.985v-22.071
			h16.8c-0.6-1.457-1.243-2.871-1.8-4.329h-15v-22.071h5.357c-0.644-1.414-1.243-2.829-1.886-4.286h-3.472v-8.1
			c-0.557-1.329-1.114-2.7-1.714-4.114c-0.687-1.714-1.543-3.514-2.572-5.271V429h-21.941v-22.071h19.113
			c-1.071-1.586-2.229-3.043-3.386-4.329h-15.728v-8.143c-1.329-0.214-2.743-0.386-4.286-0.6v8.742h-26.271V429h-21.985v-13.371
			c-1.414,0.171-2.871,0.257-4.285,0.343V429h-21.985v-15.985c-1.457-0.514-2.872-1.028-4.286-1.671V429h-21.814l0.043-22.071
			h13.585c-1.843-1.329-3.643-2.743-5.314-4.329h-8.271v-11.528c0,0-1.714,0.429-4.286,1.157v10.371h-22.157v-4.157
			c-1.414,0.557-2.571,1.114-3.343,1.628c-0.343,0.214-0.643,0.429-0.942,0.686v1.843h-1.843c-1.072,1.286-1.929,2.743-2.7,4.329
			h4.543V429h-15.728c-0.729,1.457-1.457,2.872-2.143,4.286h17.872v22.071h-21.985v-13.671c-1.457,2.914-2.872,5.871-4.286,8.785
			v4.886h-2.357c-0.686,1.458-1.372,2.915-2.1,4.329h4.457v22.071h-14.957c-0.686,1.415-1.371,2.829-2.058,4.286h17.014v22.114
			h-21.985V496.37c-1.414,2.914-2.829,5.828-4.286,8.785v3h-1.457c-0.686,1.415-1.372,2.829-2.1,4.286h3.557v22.071h-11.742
			c-0.129,1.457-0.129,2.957,0.042,4.329h11.7v15.043c1.329,0.471,2.743,0.9,4.286,1.243V538.84h21.985v19.5l4.286,0.772V538.84
			h16.457v-4.329h-16.457v-22.071h16.457v-4.286h-16.457v-22.114h16.457v-4.286h-16.457v-22.071h21.985v6h4.285v-6h22.071v6h4.286
			v-6h21.857v6h4.286v-6h21.985v6h4.285v-6h21.985v6h4.285v-6h21.985v6h4.286v-6h21.941v6h2.572v46.756h23.699v22.071h-21.985v4.329
			h21.985v8.357c0.729-0.257,1.457-0.557,2.143-0.815c0.729-0.3,1.457-0.557,2.143-0.9l0.043-6.643h9.558
			c1.028-1.114,1.714-2.614,2.143-4.329H1132.168z M917.759,534.512h-21.985v-22.071h21.985V534.512z M970.386,455.356h-22.071
			v-22.071h22.114L970.386,455.356z M970.429,429h-22.114v-22.071h22.157L970.429,429z M996.529,455.356h-21.857l0.043-22.071
			h21.814V455.356z M1022.8,455.356h-21.985v-22.071h21.985V455.356z M1049.07,455.356h-21.985v-22.071h21.985V455.356z
			 M1075.341,455.356h-21.985v-22.071h21.985V455.356z M1075.341,429h-21.985v-22.071h21.985V429z M1101.568,455.356h-21.941
			v-22.071h21.941V455.356z M1127.84,508.155h-21.985v-22.114h21.985V508.155z"/>
		<path style="fill:#1D9A85;" d="M1127.84,644.266v-4.286h-21.985v-21.985l17.313-0.043c-0.514-1.5-1.028-2.914-1.585-4.329
			l-15.729,0.043v-22.071h3.6c-0.643-1.414-1.285-2.872-1.929-4.286h-1.671v-26.399h-1.714v25.756h-2.572v0.643l-21.941,0.043
			v-0.686h-4.286v0.686l-21.985,0.042v-0.729h-4.285v0.729h-21.985v-0.729h-4.285v0.729l-21.985,0.043v-0.772h-4.286v0.772
			l-21.985,0.043v-0.814h-4.286v0.814l-21.942,0.043v-0.857h-4.285v0.857h-7.286c-0.9,1.414-1.286,2.014-2.143,3.428l9.429,0.043
			v22.671h-19.671l-1.457,4.329h21.128v22.113h-21.985v-20.571c-0.857,1.886-1.543,3.729-2.143,5.528
			c-1.029,3.129-1.714,6.3-2.143,9.557v15.343l4.286,20.742c0,0.043,0,0.043,0,0.043h21.985v22.071h-9.429
			c1.329,1.5,2.657,2.957,3.9,4.286h5.529v26.399h150.339l0.257-4.286h-14.999v-22.114h21.941v5.829
			c0.344,0.085,0.601,0,0.814-0.257c1.2-1.543,6.086-8.443,7.028-9.857h-3.557v-22.071h15.214c0.515-1.415,1.028-2.829,1.457-4.329
			l-16.671-0.043v-22.114H1127.84z M944.03,665.823l-21.985-0.086v-21.343h21.985V665.823z M970.129,719.222h-21.814v-22.114h21.857
			L970.129,719.222z M970.172,692.822h-21.857v-22.071h21.857V692.822z M970.172,666.294h-21.857v-21.9l21.899-0.043
			L970.172,666.294z M970.215,640.066l-21.899,0.042v-22.113h21.942L970.215,640.066z M970.258,613.667h-21.942v-22.671
			l21.942,0.085V613.667z M996.529,719.222h-22.114l0.043-22.114h22.071V719.222z M996.529,692.822h-22.071v-22.071h22.071V692.822z
			 M996.529,666.294h-22.071l0.042-21.943h22.028V666.294z M996.529,640.066H974.5l0.043-22.071h21.985V640.066z M996.529,613.667
			h-21.985v-22.586l21.985,0.086V613.667z M1022.8,719.222h-21.985v-22.114h21.985V719.222z M1022.8,692.822h-21.985v-22.071h21.985
			V692.822z M1022.8,666.294h-21.985v-21.943h21.985V666.294z M1022.8,640.066h-21.985v-22.071h21.985V640.066z M1022.8,613.667
			h-21.985V591.21l21.985,0.086V613.667z M1049.07,719.222h-21.985v-22.114h21.985V719.222z M1049.07,692.822h-21.985v-22.071
			h21.985V692.822z M1049.07,666.294h-21.985v-21.985h21.985V666.294z M1049.07,640.023h-21.985v-22.028h21.985V640.023z
			 M1049.07,613.667h-21.985v-22.371l21.985,0.085V613.667z M1075.341,719.222h-21.985v-22.114h21.985V719.222z M1075.341,692.822
			h-21.985v-22.071h21.985V692.822z M1075.341,666.294h-21.985v-21.985h21.985V666.294z M1075.341,640.023h-21.985v-22.028h21.985
			V640.023z M1075.341,613.667h-21.985v-22.285l21.985,0.086V613.667z M1101.568,692.822h-21.941v-22.071h21.941V692.822z
			 M1101.568,666.337l-21.941-0.043v-21.985l21.941-0.043V666.337z M1101.568,639.981l-21.941,0.043v-22.028h21.941V639.981z
			 M1101.568,613.667h-21.941v-22.199l21.941,0.085V613.667z"/>
	</g>
	<rect x="938.521" y="465.689" style="fill:#5A8DBF;" width="165.638" height="120.979"/>
	<g>
		<path style="fill:#1DAE8F;" d="M1038.192,529.04c0,7.482-6.064,13.546-13.546,13.546c-7.482,0-13.547-6.065-13.547-13.546
			c0-7.481,6.065-13.546,13.547-13.546C1032.128,515.494,1038.192,521.559,1038.192,529.04z"/>
		<path style="fill:#2B2150;" d="M1024.647,545.8c-9.243,0-16.762-7.519-16.762-16.76c0-9.243,7.519-16.762,16.762-16.762
			c9.24,0,16.759,7.519,16.759,16.762C1041.406,538.281,1033.888,545.8,1024.647,545.8z M1024.647,518.708
			c-5.698,0-10.334,4.635-10.334,10.333c0,5.696,4.636,10.331,10.334,10.331c5.695,0,10.331-4.635,10.331-10.331
			C1034.979,523.342,1030.343,518.708,1024.647,518.708z"/>
	</g>
	<path style="fill:#2B2150;" d="M955.751,627.285c-0.772,0-1.546-0.276-2.162-0.837c-1.315-1.193-1.411-3.227-0.216-4.539
		c14.766-16.24,42.057-18.306,58.4-4.428c1.354,1.149,1.52,3.177,0.37,4.53c-1.145,1.354-3.17,1.521-4.53,0.371
		c-15.288-12.982-38.349-8.387-49.485,3.851C957.494,626.932,956.623,627.285,955.751,627.285z"/>
	<g>
		<g>
			<path style="fill:#2BB19E;" d="M644.166,1222.823l-11.442,53.056c0,0-101.398-26.87-113.269-45.685l-20.185-34.113
				c-18.471,54.728-44.013,100.497-44.656,100.884l-2.443,7.928l-4.114,13.586l-8.657,28.413l-2.4,7.8
				c-0.515,2.4-4.114,2.786-9.6,1.757c-6.557-1.199-17.742,0.601-27.642-3.171c-1.5-0.6,6.471-17.399,6.471-17.399
				c-2.443-1.028-23.614-9.172-26.014-10.2c-2.142-0.899-6.128,21.813-8.186,20.957c-11.057-4.5-17.999-5.957-29.957-10.028
				l-1.5-0.857l-0.6,7.672l-57.17,0.899c0,0,0.086-17.914,0.386-42.385l-0.386-0.214c-10.456-7.414-27.599-13.114-24.556-18.557
				c3.085-5.571,14.1-21.856,25.756-37.542c0,0,0.171-8.571,0.214-12.557c0.086-4.329,1.127-42.837,1.565-51.219
				c0.283-5.407-0.62-12.144,2.715-16.699c2.102-2.87,4.213-5.733,6.33-8.594c8.147-11.008,46.032-60.529,57.046-74.101
				c9.63-11.867,19.397-23.708,30.003-34.725c1.849-1.92,4.052-5.016,6.395-6.316c0.576-0.319,5.732-3.55,6.771-3.813
				c0,0,6.729-2.614,8.229-3.643c3.771-2.657,21.299-5.7,25.885-6.386c5.1-0.729,11.914-0.986,17.528-0.343
				c0.986,3,2.271,5.957,3.9,8.957c0.472,2.785,5.357,30.728,7.928,35.527c12.557,23.313,29.357,13.843,37.713,5.528
				c6.643,2.399,13.071,3.557,18.428,3.557c0,0,0.9,0,0.9,0.043c0.257,0.771,0.429,1.586,0.557,2.4l0.814,0.3
				c0.086,0.814,0.171,1.629,0.257,2.443c0.3-0.172,0.472-0.301,0.472-0.301l41.056,101.354L644.166,1222.823z"/>
			<path style="fill:#2B2150;" d="M1082.75,617.625c-0.524,0.929-1.479,1.614-2.737,1.614c-1.396,0-2.778-1.125-3.986-1.714
				c-11.857-5.779-24.43-3.219-35.462,3.072c-1.854,1.057-3.659,2.198-5.422,3.399c-3.414,2.324-7.09-3.021-3.601-5.314
				c4.556-3.103,9.391-5.853,14.545-7.831c10.652-4.089,22.448-4.127,32.769,0.888c0.942,0.471,1.885,0.943,2.828,1.5
				C1083.346,614.22,1083.55,616.206,1082.75,617.625z"/>
			<path style="fill:#F5AE9E;" d="M1658.698,1524.016c-8.657,23.785-24.643,21.9-30.085,9.215c0,0-8.057-18.6-7.071-19.114
				c4.285-2.357,8.699-5.528,12.771-8.871c1.5-1.2,2.914-2.4,4.286-3.6c6-5.229,10.843-10.286,12.813-12.386
				c0.644-0.686,7.886-0.086,7.886-0.086C1664.526,1497.402,1662.126,1514.545,1658.698,1524.016z"/>
			<path style="fill:#1D9A85;" d="M1724.354,1567.344l-0.086,0.085c-2.785,1.886-6.471,1.458-8.442-0.985l-19.499-24.471
				c-2.486,5.4-4.072,11.143-3.986,17.143c0.129,10.199,5.015,20.956,1.629,30.385c-1.629,4.457-4.886,7.971-8.271,11.271
				c-10.628,10.371-22.714,19.199-35.913,26.228c-1.8,0.985-3.771,1.929-5.914,1.714c-2.186-0.214-4.071-1.628-5.829-2.999
				c-6.813-5.271-14.313-11.786-14.485-20.143c-0.171-9.814,9.729-16.028,13.929-24.686c7.071-14.528-2.914-31.928-8.871-47.655
				c5.442,12.686,21.428,14.57,30.085-9.215c3.428-9.471,5.828-26.613,0.6-34.842l-1.757-1.8c6.942-0.9,14.57,0.771,20.871,4.414
				c11.313,6.6,18.942,18.171,24.557,29.914c0.686,1.414,1.371,2.871,1.371,4.414c0,0.557,21.899,33.171,21.899,33.171
				C1727.953,1561.9,1727.097,1565.458,1724.354,1567.344z"/>
			<path style="fill:#1D9A85;" d="M1539.387,1588.943c-0.343,0.471,0.3,1.199,0.3,1.199l-2.357,38.271
				c-0.214,3.086-2.999,5.485-6.343,5.443h-0.128c-3.386-0.086-6.129-2.571-6.257-5.657l-1.2-31.071
				c-5.186,2.958-9.899,6.686-13.414,11.614c-6.043,8.314-8.485,19.843-16.886,25.543c-3.942,2.656-8.699,3.643-13.371,4.371
				c-14.828,2.271-29.913,2.442-44.784,0.557c-2.058-0.257-4.243-0.6-5.828-2.014c-1.629-1.415-2.314-3.686-2.914-5.786
				c-2.4-8.186-4.543-17.785,0.3-24.643c5.699-8.1,17.057-8.185,26.057-11.999c12.771-5.4,13.542-19.586,19.842-36.085
				c-2.699,11.528,14.229,14.656,36.428,2.871c9-4.8,15.471-18.813,16.114-28.499l0.085-1.114c0,0,8.657,2.357,13.886,14.229
				s4.5,25.628,2.015,38.398C1540.63,1586.071,1540.287,1587.657,1539.387,1588.943z"/>
			<path style="fill:#F5AE9E;" d="M1525.029,1531.944l-0.085,1.114c-0.644,9.686-7.114,23.699-16.114,28.499
				c-24.685,13.114-42.855,7.757-34.756-7.028c0,0,1.928-6.771,4.028-17.699L1525.029,1531.944z"/>
			<path style="fill:#313B84;" d="M1652.398,1488.188c0,0-0.343,0.386-0.986,1.071c-1.971,2.1-6.813,7.156-12.813,12.386
				c-1.372,1.199-2.786,2.399-4.286,3.6c-4.071,3.343-8.485,6.514-12.771,8.871c-0.985,0.515-1.972,1.028-2.957,1.457
				c0,0-0.429-0.643-1.286-1.843c-2.1-3-6.643-9.429-12.813-18.128c-1.286-1.929-2.743-3.943-4.243-6.043
				c-3.857-5.442-8.186-11.571-12.771-18.128c-1.414-1.972-2.828-3.985-4.285-6.043c-4.114-5.785-8.399-11.871-12.771-18.085
				c-1.414-1.972-2.871-3.985-4.285-6c-4.242-6.043-8.485-12.086-12.771-18.085c-1.414-2.058-2.828-4.071-4.242-6.043
				c-4.414-6.214-8.657-12.257-12.814-18.085c-1.414-2.058-2.828-4.071-4.242-6.043c-2.314-3.257-4.5-6.386-6.643-9.386
				l6.643,136.197l0.557,11.271l-0.557,0.043l-12.771,1.329l-4.285,0.471l-12.771,1.329l-4.243,0.428l-12.856,1.372l-3.985,0.429
				h-0.043l-4.286,0.429l-8.699-69.471l-3.943-31.585l-0.3-2.313l-12.899-102.983c0-0.043-0.043-0.171-0.043-0.429
				c0.043-0.086,0-0.214-0.043-0.386c-0.171-0.985-0.471-2.828-0.814-5.442c-0.214-1.5-0.471-3.257-0.771-5.229
				c-0.257-1.757-0.557-3.686-0.813-5.743c-0.086-0.771-0.215-1.543-0.343-2.313c-0.301-2.058-0.601-4.2-0.9-6.472
				c-5.315-38.056-14.442-109.712-15.343-156.939c4.372,1.286,9.557,2.443,9.386,0.258c-0.386-4.586,0-26.785,0-26.785
				s36.256,1.328,42.128,3.386c0,0,6.771,32.099,13.028,32.827c26.742,3.043,69.598-1.114,81.854-2.442v1.414
				c0,6.857-0.343,14.143-1.157,21.814c-0.472,4.628-3.771,25.156-6.729,45.084c-0.6,3.985-1.156,7.972-1.714,11.785
				c-1.414,10.714-1.286,10.028-2.571,23.828c-1.586,17.442-2.914,37.156-3.386,58.627c0,0-0.814,1.844,1.543,4.586
				c0.386,0.472,1.071,0.9,1.843,1.371c0.643,0.386,1.328,0.771,2.057,1.243c0.814,0.558,1.629,1.2,2.229,2.057
				c3.129,4.415,7.414,10.715,12.771,19.714c1.371,2.271,2.786,4.629,4.285,7.243c3.771,6.557,8.058,14.271,12.771,23.271
				c1.371,2.657,2.828,5.357,4.243,8.229c3.985,7.671,8.228,16.242,12.813,25.714c1.372,2.871,2.786,5.828,4.243,8.871
				c4.028,8.485,8.271,17.657,12.771,27.557c1.414,3.085,2.829,6.214,4.286,9.429c4.071,9.128,8.356,18.813,12.813,29.185
				C1651.713,1486.646,1652.056,1487.417,1652.398,1488.188z"/>
			<path style="fill:#9F90C4;" d="M1687.154,963.844c-0.3,10.157-17.1,17.571-27.557,18.128
				c-22.842,1.243-62.484-19.928-87.255-34.756l-14.871,90.298l-1.971,11.871l26.185,105.126c0,0-53.741,6.386-85.24,2.828
				c-6.258-0.729-13.028-32.827-13.028-32.827c-5.872-2.058-42.128-3.386-42.128-3.386s-0.386,22.199,0,26.785
				c0.3,3.514-13.414-1.672-15.171-1.929c0.128-11.442,4.457-76.713,7.328-119.354l-19.842,13.329
				c-8.143,5.485-19.286,1.585-22.243-7.758l-73.197-116.611l42.127-20.914l55.284,75.341l6.643-10.5
				c-0.6-12.128,5.528-21.257,9.9-28.285c5.271-8.442,13.199-24.6,13.199-24.6c6.814-9.256,7.157-19.585,18.985-23.442l19.457-5.314
				c-0.086,0.428-0.129,0.857-0.215,1.329c0,0-6.686,20.099,8.614,28.285c13.285,7.114,44.056-13.328,43.885-20.7l-0.601-5.785
				l35.871,10.114h0.129c11.313,1.414,22.199,3.814,29.742,12.257l11.057,6.557c6.043,1.628,14.11,8.786,20.581,11.614
				c-11.785-34.971-21.738-75.041-21.738-75.041l39.984-13.286C1651.155,833.69,1688.568,917.688,1687.154,963.844z"/>
			<path style="fill:#A4C6E9;" d="M1552.243,886.917c-15.856,13.757-30.984,28.328-45.342,43.67
				c-9.042,9.685-18.042,20.1-22.07,32.742c-3.429,10.756-3,22.328-2.485,33.599c1.8,42.385-0.729,85.455,1.071,127.583
				c-19.114,0-42.128-3.386-42.128-3.386s6.899-54.17,7.586-61.456c1.285-13.457-1.543-90.64-1.629-96.169
				c-0.086-5.186,1.972-10.157,4.028-14.914c8.871-20.614,18.171-41.013,27.942-61.199c1.028-2.014,2.057-4.157,3.685-5.657
				c-1.243,5.657-2.7,19.371,9.257,25.757c13.285,7.114,44.056-13.328,43.885-20.7l-0.686-6.514
				C1541.272,881.646,1546.972,883.746,1552.243,886.917z"/>
			<path style="fill:#F7AF4D;" d="M1586.828,861.161l-10.628-0.643l-0.043-0.129c-4.286-0.214-8.528-0.472-12.771-0.729
				c-5.657-0.3-11.356-0.643-16.842-2.015c-1.286-0.343-2.571-0.771-3.771-1.329c6.985-6.385,12.729-14.957,16.757-24.77
				c0.899-2.229,1.714-4.457,2.442-6.772c2.051-6.595,3.088-12.313,3.601-19.113c0.899-11.956-1.415-23.914-6.086-34.542
				l-80.313-2.228c3.9,5.185,6.429,16.242,2.186,24.042c-0.814,1.5-1.843,2.871-2.357,4.5c-2.271,6.857,5.187,13.585,4.5,20.785
				c-0.385,3.686-2.828,6.814-4.843,10.028c-1.971,3.213-3.513,7.198-1.887,10.582c2.032,4.231,3.038,7.278,2.102,12.002
				c-0.986,4.971-3.558,9.686-7.243,13.243l-58.541-3c-4.243-8.4,2.485-18.385,7.199-26.442c1.629-2.786,4.2-5.014,5.271-8.057
				c3.601-10.243-10.499-23.057,5.186-35.313c21.771-16.928-26.014-33.171,33.171-74.141c32.313-22.371,76.541-10.286,82.884,2.057
				c0,0,14.485,3.557,23.957,13.371c9.899,10.243,13.585,25.242,12.771,39.213l-3.985-0.129c1.629,3.257,2.657,6.729,2.229,10.286
				c-0.9,7.628-8.314,13.885-7.457,21.514c0.729,6.643,7.586,11.528,7.714,18.214c0.086,5.057-3.814,9.985-2.357,14.828
				c0.687,2.314,2.443,4.114,3.814,6.043C1587.3,847.79,1588.585,854.861,1586.828,861.161z"/>
			<path style="fill:#F5AE9E;" d="M1565.572,805.662c-0.472,6.6-1.715,13.028-3.601,19.114c-0.729,2.314-1.543,4.543-2.442,6.772
				c-0.043,0.042-0.043,0.042-0.043,0.042c-5.614,13.757-14.699,25.114-25.885,31.328l2.442,23.871
				c0.171,7.372-30.6,27.814-43.885,20.7c-15.3-8.186-8.614-28.285-8.614-28.285c1.243-7.714,2.614-12.814,4.114-20.571
				c-3.129-2.272-6.085-4.886-8.785-7.8c0.3-1.5,0.472-3.043,0.472-4.543s-0.129-3.086-0.771-4.457
				c-0.515-1.071-1.286-1.971-1.801-3c-1.628-3.386-0.085-7.372,1.886-10.585c2.015-3.214,4.458-6.343,4.843-10.028
				c0.687-7.2-6.771-13.928-4.5-20.785c0.515-1.629,1.543-3,2.357-4.5c4.243-7.8,1.715-18.857-2.186-24.042l80.313,2.228
				C1564.157,781.748,1566.472,793.706,1565.572,805.662z"/>
			<path style="fill:#2B2150;" d="M1497.696,803.778c-1.756,0-3.19-1.408-3.214-3.168c-0.025-1.776,1.394-3.235,3.168-3.26
				l11.095-0.157c0.017,0,0.031,0,0.046,0c1.756,0,3.189,1.408,3.214,3.168c0.025,1.777-1.394,3.235-3.168,3.261l-11.095,0.157
				C1497.726,803.778,1497.711,803.778,1497.696,803.778z"/>
			<path style="fill:#2B2150;" d="M1522.297,827.675c-3.037,0-6.454-0.615-8.852-3.193c-1.208-1.3-1.135-3.333,0.165-4.543
				c1.297-1.208,3.331-1.136,4.543,0.165c1.52,1.636,5.83,1.097,7.899,0.841l-3.279-32.102c-0.172-1.766,1.12-3.34,2.886-3.514
				c1.772-0.182,3.34,1.12,3.514,2.886l3.091,31.54c0.354,1.674,0.015,3.423-0.946,4.842c-1.022,1.507-2.653,2.503-4.472,2.727
				C1525.626,827.476,1524.023,827.675,1522.297,827.675z"/>
			<path style="fill:#2B2150;" d="M1534.801,837.89c-2.1,1.243-4.757,2.186-7.628,2.743c-2.058,0.386-4.286,0.557-6.557,0.557
				c-3.9,0-7.929-0.514-11.4-1.5c2.657,3.428,6.771,4.329,12.856,3.086c1.715-0.343,3.429,0.771,3.771,2.485
				c0.386,1.757-0.729,3.429-2.485,3.814c-2.1,0.429-4.071,0.643-5.957,0.643c-8.785,0-14.699-4.928-17.229-14.485
				c-0.385-1.5-0.214-2.7,0.558-3.685c0.643-0.772,1.8-1.329,2.871-1.329c0.9,0.043,1.758,0.429,2.271,1.071l0.215,0.129
				c0.471,0.257,0.771,0.471,1.114,0.643c4.242,2.357,12.856,3.386,18.771,2.228c2.143-0.386,4.071-1.071,5.528-1.928
				c1.543-0.9,3.515-0.386,4.414,1.114C1536.815,835.019,1536.301,836.99,1534.801,837.89z"/>
			<path style="fill:#EE7E94;" d="M1537.739,823.539c-0.38,6.678,4.743,12.418,11.421,12.798c4.187,0.238,7.974-1.664,10.336-4.758
				c0,0,0,0,0.037-0.033c0.924-2.203,1.71-4.449,2.433-6.769c0.307-6.612-4.751-12.28-11.429-12.66
				C1543.859,811.739,1538.119,816.861,1537.739,823.539z"/>
			<path style="fill:#EE7E94;" d="M1501.202,821.476c-0.386,6.686-6.129,11.786-12.814,11.4c-3.899-0.214-7.285-2.271-9.3-5.271
				c1.886-3,4.071-5.957,4.414-9.385c0.258-2.486-0.514-4.886-1.457-7.286c2.144-1.586,4.843-2.443,7.715-2.271
				C1496.445,809.048,1501.588,814.791,1501.202,821.476z"/>
			<path style="fill:#2B2150;" d="M1550.176,789.845c-0.414,0-0.835-0.079-1.24-0.249c-2.646-1.109-5.561-1.716-8.432-1.751
				c-1.776-0.023-3.197-1.48-3.174-3.254c0.021-1.774,1.278-3.25,3.254-3.174c3.691,0.046,7.437,0.825,10.837,2.25
				c1.637,0.686,2.409,2.572,1.723,4.208C1552.627,789.104,1551.434,789.845,1550.176,789.845z"/>
			<path style="fill:#2B2150;" d="M1495.845,786.018c-1.392,0-2.675-0.91-3.085-2.315c-0.496-1.706,0.483-3.488,2.187-3.986
				c3.541-1.032,7.35-1.383,11.021-1.006c1.767,0.178,3.054,1.755,2.873,3.522c-0.178,1.766-1.736,3.089-3.521,2.873
				c-2.854-0.291-5.821-0.017-8.573,0.785C1496.445,785.976,1496.144,786.018,1495.845,786.018z"/>
			<path style="fill:#2B2150;" d="M1540.661,730.242c-0.355,0-0.716-0.088-1.049-0.274c-4.021-2.26-8.019-3.698-11.877-4.271
				c-1.17-0.174-1.978-1.264-1.804-2.436c0.176-1.168,1.251-1.955,2.436-1.804c4.376,0.651,8.864,2.256,13.347,4.773
				c1.031,0.579,1.397,1.885,0.818,2.919C1542.139,729.849,1541.41,730.242,1540.661,730.242z"/>
			<path style="fill:#2B2150;" d="M1457.952,759.009c-0.234,0-0.474-0.038-0.708-0.122c-1.117-0.389-1.705-1.613-1.313-2.729
				c2.685-7.676,6.598-13.001,11.957-16.283c1.011-0.615,2.326-0.301,2.946,0.707c0.619,1.011,0.301,2.329-0.707,2.946
				c-4.484,2.746-7.806,7.339-10.153,14.043C1459.666,758.456,1458.837,759.009,1457.952,759.009z"/>
			<path style="fill:#2B2150;" d="M1461.919,848.187c-1.176,0-2.132-0.948-2.142-2.126c-0.013-1.718-0.253-3.453-0.509-5.29
				c-0.412-2.984-0.839-6.071-0.27-9.239c0.637-3.53,2.39-6.529,4.089-9.429c1.021-1.745,1.986-3.394,2.701-5.125
				c2.398-5.796,1.811-12.693-1.538-18c-0.632-1-0.332-2.323,0.67-2.955c1.003-0.63,2.325-0.333,2.955,0.67
				c4.078,6.462,4.796,14.863,1.873,21.926c-0.829,2.001-1.913,3.854-2.964,5.648c-1.577,2.697-3.067,5.244-3.567,8.025
				c-0.45,2.496-0.088,5.116,0.297,7.891c0.262,1.892,0.531,3.848,0.549,5.845c0.008,1.182-0.942,2.149-2.126,2.159
				C1461.93,848.187,1461.926,848.187,1461.919,848.187z"/>
		</g>
	</g>
	<g>
		<path style="fill:#F7AF4D;" d="M1634.329,1447.703v57.661c1.491-1.167,2.897-2.375,4.262-3.583v-44.704
			C1637.142,1453.869,1635.735,1450.744,1634.329,1447.703z"/>
		<path style="fill:#F7AF4D;" d="M1617.284,1411.414v102.408c0.853,1.208,1.32,1.833,1.32,1.833c0.98-0.417,1.961-0.917,2.94-1.458
			v-93.95C1620.097,1417.205,1618.69,1414.247,1617.284,1411.414z"/>
		<path style="fill:#F7AF4D;" d="M1600.238,1377.626v112.156c1.491,2.083,2.94,4.083,4.262,5.999v-109.989
			C1603.051,1382.959,1601.603,1380.25,1600.238,1377.626z"/>
		<path style="fill:#F7AF4D;" d="M1583.193,1347.212v118.489c1.449,2.041,2.854,4.041,4.261,6v-117.282
			C1585.963,1351.836,1584.557,1349.461,1583.193,1347.212z"/>
		<path style="fill:#F7AF4D;" d="M1566.147,1157.848v109.182c0.938-13.33,4.262-33.088,4.262-33.088v-77.046
			C1568.96,1157.292,1567.555,1157.609,1566.147,1157.848z"/>
		<path style="fill:#F7AF4D;" d="M1570.409,1327.588c-1.747-2.374-3.153-4.166-4.262-5.541v119.656c1.407,2,2.855,4,4.262,6
			V1327.588z"/>
		<path style="fill:#F7AF4D;" d="M1549.103,1158.896v258.769c1.406,2,2.854,3.999,4.261,6.041v-265.102
			C1551.957,1158.729,1550.552,1158.812,1549.103,1158.896z"/>
		<path style="fill:#F7AF4D;" d="M1532.057,1159.854v233.813c1.407,1.958,2.813,3.958,4.262,5.999v-240.021
			C1534.912,1159.771,1533.506,1159.812,1532.057,1159.854z"/>
		<polygon style="fill:#F7AF4D;" points="1532.611,1531.154 1532.057,1519.863 1532.057,1531.195 		"/>
		<path style="fill:#F7AF4D;" d="M1519.287,1160.296v372.206l-4.285,0.471v-372.548
			C1516.416,1160.382,1517.83,1160.339,1519.287,1160.296z"/>
		<path style="fill:#F7AF4D;" d="M1502.23,1160.682v373.62l-4.243,0.428v-374.305
			C1499.359,1160.639,1500.773,1160.682,1502.23,1160.682z"/>
		<path style="fill:#F7AF4D;" d="M1485.174,1140.239v395.434c0,0.128,0,0.257-0.043,0.386v0.043l-3.985,0.429h-0.043v-0.043
			c-0.129-0.257-0.172-0.558-0.172-0.814v-406.704c0.429,0.043,0.857,0.086,1.286,0.129
			C1483.202,1132.825,1484.188,1136.511,1485.174,1140.239z"/>
		<path style="fill:#F7AF4D;" d="M1463.876,1124.961v308.65l4.261,34.173v-342.445
			C1466.688,1125.213,1465.282,1125.087,1463.876,1124.961z"/>
		<path style="fill:#F7AF4D;" d="M1446.83,1123.239v178.087c2.43,17.759,4.177,29.136,4.177,29.136l0.085,0.672v-207.475
			C1449.685,1123.533,1448.236,1123.407,1446.83,1123.239z"/>
	</g>
	<g>
		<rect x="1540.42" y="796.193" style="fill:#108875;" width="37.494" height="13.107"/>
		<rect x="1578.445" y="788.335" style="fill:#1D9A85;" width="108.757" height="28.823"/>
		<rect x="1687.202" y="779.636" style="fill:#108875;" width="87.83" height="46.223"/>
		<path style="fill:#F5AE9E;" d="M1635.824,802.747h-27.59c-5.452,0-9.871-4.42-9.871-9.872v-4.026c0-2.33,1.888-4.218,4.218-4.218
			h38.463c2.329,0,4.218,1.889,4.218,4.218v4.459C1645.262,798.521,1641.037,802.747,1635.824,802.747z"/>
		<path style="fill:#F5AE9E;" d="M1650.684,817.148c-0.043,0.729-0.128,1.457-0.214,2.186c-0.601,4.757-1.843,9.471-3.857,13.8
			c-0.3,0.643-0.6,1.286-0.942,1.885l-33.643,11.185c-1.586-1.114-2.785-2.357-3.514-3.685c-6.6-12.343-11.957-12.514-16.671-13.5
			c-1.972-0.086-8.528-2.057-10.286-2.871c-1.757-0.858-3.3-2.4-3.729-4.329c-0.128-0.6-0.128-1.2,0.086-1.8
			c0.515-1.2,2.443-2.571,3.771-2.871H1650.684z"/>
		<path style="fill:#F5AE9E;" d="M1318.378,909.203c1.886,2.657,0.214,6.686,1.886,9.514c-3.942,4.5-11.229,5.614-16.328,2.528
			c-1.586-0.943-2.957-2.229-4.114-3.643c-2.657-3.172-4.457-7.028-5.143-11.1c5.785-0.257,11.613-0.172,17.356,0.257
			C1314.393,906.931,1317.007,907.317,1318.378,909.203z"/>
		<path style="fill:#F5AE9E;" d="M1356.991,895.874c-10.586,5.357-21.471,10.028-32.656,13.971c-0.601,0.214-1.243,0.429-1.886,0.3
			c-0.985-0.128-1.715-0.943-2.442-1.629c-3.301-3-8.101-3.3-12.515-3.471c-4.671-0.214-9.342-0.386-14.014-0.557
			c1.328-4.586,6-17.485,7.285-19.114c9.943-3.386,20.614-3.471,31.114-3.386c4.199,0.043,8.785,0.214,11.999,2.914
			C1345.549,886.317,1353.52,894.846,1356.991,895.874z"/>
	</g>
	<path style="fill:#F5AE9E;" d="M389.301,1746.824c-11.742,6.172-35.228,6.857-54.042,3.558c-1.543-1.243-3.171-2.571-5.014-4.028
		c-1.457-1.114-3.386-1.5-5.314-1.629l0.557-7.885l8.228,0.686l0.6-2.915l9.514-0.686l35.356,2.4v0.043
		C381.672,1739.239,385.186,1743.054,389.301,1746.824z"/>
	<g>
		<path style="fill:#789ED3;" d="M478.441,1796.066c-0.171,0.515-0.386,1.071-0.729,1.5c-0.986,1.114-2.786,1.242-4.329,1.285
			c-30.342,0.771-60.641,0.515-90.941-0.043c-35.956,0.644-128.697,0.129-129.725-1.156c-0.772-0.986-3.257-31.971,3.857-49.07
			c19.628,5.399,49.284,5.229,61.541-2.871c1.543-1.029,3.686-1.072,5.572-1.029c2.314,0.043,4.8,0.3,6.557,1.672
			c1.843,1.457,3.471,2.785,5.014,4.028c19.714,3.472,44.57,2.528,55.67-4.5c1.628-1.028,3.857-1.071,5.828-1.028
			c2.4,0.043,4.971,0.3,6.771,1.714c13.713,10.543,17.314,15.171,46.327,14.571c9.214-0.214,21.643,0.043,27.3,6.387
			c3.196,3.597,3.197,8.755,3.02,13.282C479.978,1785.911,480.076,1791.162,478.441,1796.066z"/>
		<path style="fill:#F5AE9E;" d="M323.388,1744.682c-1.8-0.043-3.814,0.043-5.272,1.029c-11.657,7.714-39.127,8.228-58.67,3.6
			l3.343-17.785l56.356,4.757C320.303,1738.811,321.717,1741.725,323.388,1744.682z"/>
		<path style="fill:#4B3584;" d="M436.442,1530.444l-40.113,207.081l-61.755-4.243l-0.857,4.243l-75.855-6.429l35.314-201.467
			c1.714-14.571-28.585-124.111-30.642-159.854c-1.972-1.971-7.5-50.313-1.714-81.169c4.886,3.9,22.371,13.328,22.371,13.328
			c-0.3,24.471-0.386,42.385-0.386,42.385l57.17-0.899l0.6-7.672l1.5,0.857c11.957,4.071,18.899,5.528,29.957,10.028
			c2.057,0.856,6.043-21.856,8.186-20.957c2.4,1.028,23.571,9.172,26.014,10.2c0,0-7.971,16.8-6.471,17.399
			c9.9,3.771,21.085,1.972,27.642,3.171c2.7,0.515,4.928,0.686,6.6,0.386L436.442,1530.444z"/>
		<path style="fill:#F5AE9E;" d="M496.227,1077.241c-8.356,8.314-25.156,17.785-37.713-5.528c-2.571-4.8-7.457-32.742-7.928-35.527
			c4.029,7.585,10.071,15.214,17.7,23.271C476.17,1067.813,486.456,1073.813,496.227,1077.241z"/>
		<path style="fill:#313B84;" d="M628.48,950.688c-0.9-10.714-8.957-19.457-18.985-22.285c-2.743-0.771-5.957-1.414-7.286-3.943
			c-0.686-1.372-0.686-3-0.815-4.543c-1.243-14.914-16.842-25.628-31.371-21.557c-1.329,0.386-2.7,0.857-4.028,0.686
			c-1.629-0.257-2.872-1.415-4.114-2.357c-7.243-5.528-16.757-12.814-27.043-5.186c-2.314,1.714-4.071,4.157-6.557,5.485
			c0,0-11.571-9.6-20.914-7.971c-17.957,3.171-21.385,6.771-27.043,16.5c0,0-24.856,7.543-33.599,41.399
			c-7.286,28.371,5.272,37.713,5.272,37.713c0.728-0.086,2.014-0.514,3.6-1.157c-19.628,28.67-11.828,50.056,12.686,75.984
			c13.242,14.014,33.127,21.385,46.37,21.342c13.628-0.042,23.828-3.428,31.457-13.328c2.914-3.771,15.557-22.242,19.457-35.741
			c0,0-22.842,12.899-28.585,1.242c-4.029-8.186-13.842-10.928-20.614-12.856c-32.27-9.214-41.227-24.343-35.184-44.142
			c0.685-2.186-0.515-3.557-2.572-4.2c-0.728-0.3-1.542-0.428-2.443-0.514c-1.223-0.128-2.511-5.581-2.792-6.466
			c-1.257-3.951-2.003-7.798-2.35-11.919c-0.386-4.585-1.029-7.414,1.114-11.314c2.7-4.972,6.257-6.643,9.557-6.643
			c3.985,0,7.543,2.485,8.743,4.757c1.825,3.422,2.76,9.137,0.814,12.686c2.743,1.371,5.957,2.185,8.957,2.828
			c5.271,1.114,10.457-3.128,14.957-6.729c4.5-3.557,5.271-16.371,5.271-16.371l0.343-1.243c0,10.071,6.857,25.285,29.228,33.385
			c6.6,2.4,14.571,1.886,20.871-2.271c1.628,13.157,6.557,28.371,21.128,36.256c6,3.214,14.614,1.8,20.485-2.7
			c6.043-4.628,4.714-14.7-0.772-19.071C622.095,973.273,629.38,961.401,628.48,950.688z"/>
		<path style="fill:#F5AE9E;" d="M588.924,996.329c-2.4,5.356-5.357,10.929-8.871,16.843c-4.157,7.027-9.043,13.199-14.485,18.557
			c0,0-22.842,12.899-28.585,1.242c-4.029-8.186-13.842-10.928-20.614-12.856c-32.27-9.214-41.227-24.343-35.184-44.142
			c0.685-2.186-0.515-3.557-2.572-4.2c-0.043-0.129-6.343,2.614-7.5-17.4c-0.042-0.515-0.042-1.029-0.085-1.5
			c-0.386-4.585-1.029-7.414,1.114-11.314c2.7-4.972,6.257-6.643,9.557-6.643c3.985,0,7.543,2.485,8.743,4.757
			c0.343,0.643,0.643,1.286,0.857,1.971c0.943,2.7,1.415,8.057-0.043,10.714c2.743,1.371,5.957,2.185,8.957,2.828
			c5.271,1.114,10.457-3.128,14.957-6.729c4.5-3.557,5.271-16.371,5.271-16.371l0.343-1.243c0,10.071,6.857,25.285,29.228,33.385
			c6.6,2.4,14.571,1.886,20.871-2.271C572.382,974.129,576.71,988.101,588.924,996.329z"/>
		<path style="fill:#2B2150;" d="M563.364,938.241c-0.268,0-0.538-0.05-0.799-0.155c-1.099-0.441-1.63-1.688-1.189-2.787
			c2.053-5.104,1.461-11.139-1.542-15.749c-3.003-4.61-8.285-7.587-13.782-7.774c-1.184-0.04-2.109-1.029-2.07-2.212
			c0.038-1.184,1.18-2.174,2.212-2.069c6.874,0.23,13.476,3.953,17.23,9.716c3.754,5.763,4.493,13.307,1.927,19.687
			C565.016,937.734,564.212,938.241,563.364,938.241z"/>
		<path style="fill:#EE7E94;" d="M567.454,1029.8c-0.6,0.643-1.243,1.328-1.886,1.929c-0.043,0.042-0.043,0.085-0.128,0.085
			c-1.457,0.771-15.214,8.144-23.485,5.443c-1.114-4.071-0.214-8.614,2.7-12.043c4.8-5.614,13.199-6.257,18.771-1.5
			C565.396,1025.386,566.768,1027.485,567.454,1029.8z"/>
		<path style="fill:#2B2150;" d="M539.321,1021.716c-0.582,0-1.17-0.079-1.75-0.247c-3.176-0.92-8.487-2.458-11.145-8.171
			c-0.747-1.609-0.05-3.523,1.559-4.271c1.611-0.749,3.519-0.052,4.271,1.559c1.203,2.59,3.336,3.618,7.098,4.708l12.16-22.912
			c0.831-1.569,2.777-2.166,4.349-1.323c1.567,0.835,2.159,2.783,1.322,4.349l-12.263,22.977
			C543.812,1020.469,541.618,1021.716,539.321,1021.716z"/>
		<path style="fill:#2B2150;" d="M560.083,1012.925c-0.737,0-1.477-0.253-2.083-0.768c-1.352-1.151-1.513-3.181-0.362-4.53
			l3.143-3.688c1.151-1.348,3.183-1.509,4.53-0.362c1.352,1.151,1.513,3.181,0.362,4.531l-3.143,3.687
			C561.896,1012.542,560.994,1012.925,560.083,1012.925z"/>
		<path style="fill:#2B2150;" d="M528.106,988.252c-0.736,0-1.479-0.254-2.084-0.77c-1.35-1.151-1.511-3.181-0.358-4.53l3.145-3.685
			c1.153-1.348,3.185-1.509,4.531-0.358c1.35,1.151,1.511,3.181,0.358,4.53l-3.146,3.685
			C529.919,987.869,529.015,988.252,528.106,988.252z"/>
		<path style="fill:#EE7E94;" d="M496.631,988.769c-4.777,5.601-4.109,14.016,1.492,18.793s14.015,4.11,18.792-1.491
			c4.778-5.602,4.11-14.015-1.491-18.793C509.824,982.501,501.41,983.169,496.631,988.769z"/>
		<path style="fill:#2B2150;" d="M542.863,978.454c-0.789,0-1.578-0.287-2.197-0.869c-2.697-2.525-8.812-4.484-10.94-5.024
			c-1.722-0.438-2.762-2.187-2.325-3.907c0.439-1.72,2.181-2.762,3.907-2.325c0.948,0.241,9.383,2.471,13.752,6.564
			c1.296,1.214,1.362,3.248,0.149,4.543C544.577,978.113,543.722,978.454,542.863,978.454z"/>
		<path style="fill:#2B2150;" d="M572.388,1007.12c-1.141,0-2.245-0.606-2.827-1.68c-1.169-2.151-3.599-5.535-5.336-6.322
			c-1.616-0.734-2.331-2.639-1.599-4.256c0.736-1.613,2.637-2.327,4.256-1.599c4.288,1.948,7.692,7.935,8.331,9.116
			c0.843,1.561,0.264,3.507-1.295,4.352C573.432,1006.995,572.907,1007.12,572.388,1007.12z"/>
	</g>
	<path style="fill:#2B2150;" d="M484.656,963.789c-0.471,0-0.946-0.15-1.343-0.461c-2.415-1.877-3.162-8.299-3.395-11.959
		c-0.075-1.182,0.823-2.199,2.003-2.274c1.169-0.073,2.197,0.822,2.274,2.003c0.253,3.97,1.092,8.123,1.795,8.889
		c0.936,0.728,1.08,2.053,0.354,2.986C485.926,963.511,485.294,963.789,484.656,963.789z"/>
	<path style="fill:#F7AF4D;" d="M489.409,1082.505c-10.24,3.143-24.593-2.112-30.879-10.785
		c-3.896,68.654-18.263,131.97-42.954,188.393c-10.643,24.323-24.759,41.224-35.345,65.571l25.981,10.17
		c19.705-34.016,26.911-54.316,42.934-90.214c5.678-12.721,11.367-25.472,15.63-38.733
		C477.727,1166.615,484.079,1122.26,489.409,1082.505z"/>
	<path style="fill:#EE7E94;" d="M523.042,1041.698c-4.263,0-8.09-1.417-11.737-5.46c-1.62-1.797-2.986-6.606-2.706-9.529
		c0.111-1.178,1.143-2.093,2.335-1.93c1.178,0.111,2.042,1.157,1.929,2.336c-0.186,1.956,0.923,5.474,1.626,6.252
		c3.687,4.094,7.341,4.895,14.451,3.219c1.157-0.287,2.306,0.439,2.58,1.59c0.272,1.153-0.441,2.307-1.592,2.578
		C527.5,1041.33,525.215,1041.698,523.042,1041.698z"/>
	<path style="fill:#F5AE9E;" d="M694.351,1255.865c-0.771,6-7.372,22.8-9.3,25.199c-1.457,1.758-3.043,3.515-5.1,4.457
		c-1.885,0.857-3.985,0.986-6.042,0.943c-6.343-0.172-12.428-1.972-18.342-4.243c-1.757-0.686-3.214-1.757-4.286-3.128
		c-1.029-0.043-2.015-0.086-3.043-0.129c-3.128-0.129-12.9-5.143-12.9-5.143c0.729-11.229,2.958-32.828,6.943-43.328
		c0.857-2.271,1.8-4.585,3.428-6.342c1.586-1.758,3.686-2.914,5.7-4.114c5.1-3.043,10.243-10.071,14.871-16.071
		c2.786-3.6,8.657-1.8,8.829,2.742c0.128,4.929-1.2,9.986-2.486,12.729c-2.143,4.672-7.971,8.4-6.514,13.328
		c2.014,0.857,3.985,1.758,6,2.614c9.471,0.086,21.599,5.015,22.499,10.028C695.25,1248.88,694.779,1252.395,694.351,1255.865z"/>
	<path style="fill:#5A8DBF;" d="M734.672,1170.148c-9.697,23.523-29.216,37.788-43.598,31.859
		c-14.382-5.928-18.18-29.804-8.483-53.328c9.697-23.523,29.216-37.788,43.598-31.859
		C740.57,1122.748,744.368,1146.624,734.672,1170.148z"/>
	<path style="fill:#2B2150;" d="M700.06,1194.613c-1.653,0-3.244-0.308-4.744-0.925c-5.284-2.179-8.621-7.887-9.398-16.077
		c-0.732-7.703,0.879-16.826,4.532-25.69c0.454-1.093,1.716-1.609,2.798-1.166c1.094,0.452,1.615,1.704,1.166,2.798
		c-3.394,8.232-4.897,16.634-4.229,23.652c0.619,6.531,3.021,10.979,6.763,12.521c3.752,1.544,8.582,0.079,13.623-4.116
		c5.42-4.512,10.275-11.53,13.667-19.763c3.394-8.232,4.896-16.632,4.229-23.652c-0.622-6.531-3.024-10.978-6.766-12.52
		c-1.094-0.452-1.615-1.704-1.166-2.798c0.452-1.093,1.714-1.605,2.798-1.166c5.284,2.179,8.622,7.887,9.4,16.077
		c0.731,7.703-0.879,16.827-4.533,25.691c-3.655,8.866-8.941,16.475-14.889,21.424
		C708.787,1192.672,704.225,1194.611,700.06,1194.613z"/>
	<path style="fill:#F5AE9E;" d="M1064.498,388.244c0,0-0.6,2.7-2.442,5.271c-3.558,5.014-16.071,18.814-40.628,19.414
		c-27.685,0.685-44.484-18.557-44.484-24.685l1.757-0.643c0-0.643,19.928-4.843,19.928-4.843l3-18.214
		c-12.986-5.528-22.286-18.471-28.114-34.842c-2.015-5.743-3.643-11.743-4.714-17.743c-0.985-5.871-1.714-18.514-1.243-24.385
		c0.686-8.657,0.686-17.699,2.1-26.271c2.915,3.214,7.971,5.614,11.571,7.414c11.186,5.571,27.599-0.514,40.071-1.5
		c28.456-2.186,29.87,20.014,29.87,20.014c3.515,28.842,10.886,33.556,9.729,41.87c-2.143,15.471-9.985,24.214-16.714,29.699
		c0,0,0,0.043-0.043,0c-1.371,0.9-2.742,1.671-4.157,2.4l0.086,0.728l2.7,20.657c0.043,0.128,0.043,0.171,0.043,0.171l0.171,0.043
		C1044.784,383.315,1059.355,387.301,1064.498,388.244z"/>
	<path style="fill:#2B2150;" d="M1001.561,327.253c-2.205,0-4.156-0.249-5.124-0.397c-1.997-0.553-3.254-1.76-3.856-3.403
		c-0.548-1.492-0.467-3.132,0.205-4.517l5.539-25.785c0.373-1.734,2.08-2.837,3.819-2.467c1.734,0.375,2.84,2.082,2.467,3.819
		l-5.635,26.222c2.921,0.262,6.27,0.023,7.056-0.645c1.354-1.151,3.384-0.975,4.53,0.379c1.148,1.356,0.978,3.383-0.378,4.53
		C1008.051,326.793,1004.568,327.253,1001.561,327.253z"/>
	<path style="fill:#2B2150;" d="M1055.004,251.292c-0.522,0-1.046-0.19-1.458-0.573c-4.112-3.819-9.436-5.991-16.272-6.638
		c-1.178-0.111-2.044-1.155-1.932-2.333c0.111-1.178,1.189-2.08,2.334-1.932c7.813,0.736,13.957,3.277,18.787,7.764
		c0.866,0.806,0.916,2.162,0.11,3.028C1056.15,251.062,1055.577,251.292,1055.004,251.292z"/>
	<path style="fill:#EE7E94;" d="M1018.275,322.373c0.033,7.555,6.185,13.653,13.74,13.62c7.555-0.033,13.652-6.185,13.62-13.74
		c-0.033-7.555-6.185-13.653-13.739-13.62C1024.341,308.666,1018.243,314.817,1018.275,322.373z"/>
	<path style="fill:#2B2150;" d="M982.73,302.268c-1.768,0-3.206-1.429-3.214-3.2l-0.019-4.242c-0.008-1.774,1.425-3.22,3.2-3.228
		c0.004,0,0.01,0,0.015,0c1.768,0,3.206,1.429,3.214,3.199l0.019,4.242c0.008,1.774-1.425,3.221-3.2,3.229
		C982.741,302.268,982.735,302.268,982.73,302.268z"/>
	<path style="fill:#2B2150;" d="M1025.609,305.488c-1.768,0-3.205-1.429-3.214-3.199l-0.018-3.909
		c-0.009-1.774,1.423-3.22,3.199-3.229c0.004,0,0.011,0,0.015,0c1.769,0,3.206,1.429,3.214,3.2l0.02,3.909
		c0.008,1.774-1.424,3.22-3.2,3.228C1025.62,305.488,1025.614,305.488,1025.609,305.488z"/>
	<path style="fill:#EE7E94;" d="M971.424,310.19c0.192,1.048,0.419,2.094,0.648,3.14c1.329,6.239,3.042,12.188,5.096,17.69
		c0.657,1.77,1.349,3.5,2.074,5.149c5.787-1.435,9.969-7.218,9.668-13.895c-0.341-7.575-6.275-13.411-13.232-13.098
		C974.163,309.245,972.733,309.583,971.424,310.19z"/>
	<path style="fill:#2B2150;" d="M1105.32,344.462c-0.54,0-1.08-0.203-1.496-0.609c-3.275-3.191-6.977-7.085-9.611-11.771
		c-3.704-6.592-4.995-14.211-5.771-20.796c-0.138-1.176,0.703-2.241,1.877-2.379c1.166-0.153,2.241,0.701,2.38,1.877
		c0.726,6.165,1.916,13.267,5.252,19.197c2.367,4.212,5.81,7.824,8.866,10.804c0.848,0.825,0.864,2.183,0.038,3.03
		C1106.435,344.247,1105.877,344.462,1105.32,344.462z"/>
	<path style="fill:#2B2150;" d="M1032.157,287.611c-0.502,0-1.011-0.117-1.485-0.364c-3.225-1.683-6.845-2.781-10.47-3.175
		c-1.764-0.192-3.04-1.778-2.848-3.542c0.192-1.764,1.818-3.026,3.543-2.848c4.476,0.485,8.766,1.787,12.75,3.865
		c1.573,0.822,2.183,2.762,1.362,4.338C1034.437,286.983,1033.316,287.611,1032.157,287.611z"/>
	<path style="fill:#2B2150;" d="M976.947,285.851c-1.212,0-2.371-0.686-2.915-1.858c-0.751-1.609-0.052-3.52,1.557-4.269
		c4.723-2.202,13.194-1.557,14.148-1.471c1.769,0.151,3.078,1.706,2.928,3.474c-0.148,1.769-1.662,3.049-3.474,2.932
		c-2.936-0.253-8.49-0.226-10.89,0.892C977.863,285.755,977.401,285.851,976.947,285.851z"/>
	<g>
		<path style="fill:#9F90C4;" d="M280.74,1300.343h-21.557c0.129-1.457,0.3-2.871,0.471-4.285h13.757
			C275.897,1297.429,278.426,1298.843,280.74,1300.343z"/>
		<path style="fill:#9F90C4;" d="M282.969,1318.686c0,1.5,0,2.914-0.043,4.285h-24.685c0-1.414,0-2.871,0.043-4.285H282.969z"/>
		<path style="fill:#9F90C4;" d="M356.981,1341.356c4.028,1.242,7.971,2.528,12.557,4.285h-110.44
			c-0.085-1.414-0.171-2.828-0.257-4.285h23.957c0,1.929,0,2.957,0,2.957l57.17-0.9l0.171-2.057H356.981z"/>
		<path style="fill:#9F90C4;" d="M403.737,1341.356c-0.6,1.328-1.243,2.828-1.843,4.285h-28.842
			c0.471-0.942,0.985-2.485,1.543-4.285H403.737z"/>
		<path style="fill:#9F90C4;" d="M434.165,1368.271H261.969c-0.3-0.986-0.557-2.443-0.857-4.286h173.01L434.165,1368.271z"/>
		<path style="fill:#9F90C4;" d="M434.465,1390.898h-169.11c-0.257-1.501-0.472-2.915-0.686-4.286h169.753L434.465,1390.898z"/>
		<path style="fill:#9F90C4;" d="M434.808,1413.525H269.255c-0.257-1.457-0.515-2.871-0.772-4.285h166.239L434.808,1413.525z"/>
		<path style="fill:#9F90C4;" d="M435.108,1436.197H273.54c-0.257-1.457-0.515-2.872-0.814-4.286h162.339L435.108,1436.197z"/>
		<path style="fill:#9F90C4;" d="M435.451,1458.824H278.083c-0.257-1.414-0.558-2.871-0.857-4.285h158.139L435.451,1458.824z"/>
		<path style="fill:#9F90C4;" d="M435.75,1481.453H282.797c-0.3-1.414-0.6-2.829-0.9-4.286h153.811L435.75,1481.453z"/>
		<path style="fill:#9F90C4;" d="M436.051,1504.124H287.597c-0.3-1.372-0.6-2.828-0.943-4.286h149.354L436.051,1504.124z"/>
		<path style="fill:#9F90C4;" d="M436.394,1526.752H293.599c-0.255-1.114-0.553-2.572-0.936-4.286h143.646L436.394,1526.752z"/>
		<polygon style="fill:#9F90C4;" points="433.608,1545.095 432.793,1549.38 289.697,1549.38 290.469,1545.095 		"/>
		<polygon style="fill:#9F90C4;" points="429.236,1567.765 428.379,1572.051 285.754,1572.051 286.483,1567.765 		"/>
		<polygon style="fill:#9F90C4;" points="424.822,1590.393 424.008,1594.679 281.769,1594.679 282.54,1590.393 		"/>
		<polygon style="fill:#9F90C4;" points="420.451,1613.021 419.637,1617.307 277.783,1617.307 278.555,1613.021 		"/>
		<polygon style="fill:#9F90C4;" points="416.08,1635.648 415.266,1639.935 273.84,1639.935 274.569,1635.648 		"/>
		<polygon style="fill:#9F90C4;" points="411.708,1658.32 410.851,1662.605 269.854,1662.605 270.626,1658.32 		"/>
		<polygon style="fill:#9F90C4;" points="407.294,1680.948 406.48,1685.233 265.912,1685.233 266.641,1680.948 		"/>
		<polygon style="fill:#9F90C4;" points="402.923,1703.576 402.109,1707.861 261.926,1707.861 262.698,1703.576 		"/>
		<polygon style="fill:#9F90C4;" points="397.737,1727.554 397.737,1730.533 257.941,1730.533 258.35,1728.311 		"/>
	</g>
	<path style="fill:#F5AE9E;" d="M294.304,1344.325c-7.19,7.586-2.473,52.142-2.473,52.142
		c-1.415,15.948,17.553,31.314,31.656,31.765c9.583-0.135,15.305-41.06,15.014-49.715c0,0,6.044,6.32,8.99,8.393
		c2.128,1.496,9.462,2.639,10.732,1.516c3.88-3.437,3.668-5.21,0.493-7.661c-5.81-4.487-10.951-18.435-11.92-21.405
		c-1.392-4.231-8.478-12.137-12.228-15.033H294.304z"/>
	<path style="fill:#2B2150;" d="M1005.799,350.133c-0.764,0-1.527-0.048-2.287-0.143c-1.302-0.159-2.571-0.454-3.768-0.872
		c-3.875-1.354-7.253-4.183-9.264-7.761c-0.871-1.548-0.32-3.507,1.226-4.378c1.544-0.873,3.507-0.32,4.378,1.227
		c1.255,2.233,3.363,3.999,5.782,4.844c0.766,0.268,1.586,0.458,2.436,0.561c4.453,0.552,9.26-1.471,11.972-5.039
		c1.071-1.415,3.091-1.691,4.503-0.615c1.415,1.073,1.689,3.091,0.615,4.503C1017.741,347.264,1011.803,350.133,1005.799,350.133z"
		/>
	<path style="fill:#F7AF4D;" d="M655.566,1282.222c3.342,1.286,6.728,2.4,10.157,3.172l-0.643,1.585c-1.757,4.2-6.6,6.215-10.8,4.5
		l-0.128-0.085c-4.243-1.715-6.257-6.558-4.5-10.758l0.643-1.585c0.343,0,0.643,0.043,0.986,0.043
		C652.352,1280.465,653.809,1281.536,655.566,1282.222z"/>
	<path style="fill:#F7AF4D;" d="M691.265,1223.466l-6,14.571c-4.028-1.586-8.871-2.614-13.157-2.657
		c-1.072-0.471-2.143-0.942-3.214-1.414l6.942-16.886L691.265,1223.466z"/>
	<path style="fill:#2B2150;" d="M1775.053,776.434h-87.855c-1.757,0-3.214,1.458-3.214,3.214v5.486h-36.514
		c-1.286-2.228-3.686-3.728-6.429-3.728H1602.6c-2.743,0-5.143,1.5-6.429,3.728h-11.828c0.3-0.9,0.472-1.843,0.6-2.829
		c0.3-2.614,0-5.1-0.686-7.371c1.329-0.3,2.4-1.543,2.485-3c0.943-16.499-4.028-31.671-13.671-41.613
		c-8.399-8.7-20.228-12.729-24.171-13.886c-5.742-8.528-24.085-15.042-42.984-15.042c-11.356,0-28.199,2.271-43.799,13.071
		c-38.613,26.742-33.685,44.398-30.085,57.298c2.057,7.414,3.3,11.871-3.257,16.971c-11.614,9.086-9.043,19.157-7.157,26.528
		c0.985,3.986,1.886,7.415,0.899,10.243c-1.199,3.429-4.242,6.214-6.128,9.386c-4.843,8.186-10.886,18.342-6.171,27.599
		c0.514,1.029,1.542,1.714,2.699,1.757c0,0,58.67,3.043,58.713,3.043c0.814,0,1.629-0.343,2.229-0.9c2.829-2.743,5.058-6,6.515-9.6
		c1.242,1.114,2.485,2.185,3.771,3.214c-0.472,2.229-2.571,12.042-3.172,15.299l-17.699,4.843
		c-9.257,3.043-12.514,9.6-15.643,15.985c-1.414,2.872-18.856,34.371-18.856,34.371c-4.2,6.685-9.985,15.942-9.771,28.028
		l-3.643,5.786c0,0-52.284-71.441-52.456-71.698c-1.843-2.528-4.114,0.9-5.571-0.086c-2.314-1.243-7.371-6.214-9.128-7.928
		c-1.028-0.986-1.843-1.8-2.271-2.143c-1.071-0.9-2.229-1.586-3.472-2.1c-0.043,0-0.086-0.043-0.128-0.043
		c-1.629-5.572-3.429-11.014-5.4-16.371c-14.143-38.313-37.199-71.184-69.084-98.312c-41.142-34.971-93.641-57.384-156.639-67.027
		c19.928-18.6,26.784-58.07,13.885-89.484l-17.742-36.685v-12.428l28.671-9.729c9.3-3.514,19.156-12.257,12.985-34.113
		c-6.257-22.242-15.386-46.499-23.613-66.641c0,0,17.271-5.1,17.313-5.1c3.942-1.157,2.186-7.371-1.843-6.171l-19.028,5.614
		c-3.643-7.457-14.143-30.556-17.528-37.199c-1.757-3.471-4.285-7.071-6.813-10.071c-2.058-2.442-4.372-4.285-7.243-5.7
		c-2.657-1.328-6.128-1.671-8.957-2.357c-2.1-0.472-24.813-5.443-25.585-5.657c-1.157-0.3-9.514-2.529-9.985-2.743l-0.129-0.043
		c-0.643-3.728-2.186-16.628-2.057-16.714c5.271-3.857,13.842-11.057,18.3-24.17c0.771,4.414,0.813,8.271,0.128,11.871
		c-0.6,3.171-1.5,6.3-1.328,9.557c0.257,4.757,2.485,8.871,4.757,12.685c2.143,3.6,7.628,0.257,5.528-3.3
		c-1.886-3.086-3.686-6.429-3.857-9.686c-0.128-2.743,0.814-5.4,1.243-8.1c2.058-12.343-2.442-23.957-6.686-35.271
		c-2.229-5.958-5.314-14.143-7.242-29.957c0-0.086-0.043-0.557-0.172-1.286c5.485,3.343,12,5.057,18.428,5.057
		c4.586,0,9.129-0.857,13.372-2.571c3.856-1.543,1.499-7.543-2.4-5.957c-8.485,3.429-18.514,2.614-26.186-2.1
		c-8.656-5.314-16.628-14.7-27.256-15.6c-7.157-0.642-14.271,0.043-21.3,1.286c-7.071,1.243-14.314,2.957-21.471,1.5
		c-5.271-1.072-13.714-4.543-16.371-9.557c-3-5.7-3.6-12.643-1.286-18.686c2.1-5.528,6.171-9.814,11.185-11.699
		c6.471,8.957,23.914,11.785,34.757,13.542c1.698,0.292,4.871,1.616,6.134-0.14c2.404-3.341-3.756-3.778-5.449-4.06
		c-9.643-1.585-27.128-4.414-32.185-12.214c0.171-0.257,0.343-0.514,0.557-0.771c3.472-4.8,10.714-14.785,30.6-18.557
		c18.728-3.557,49.756,0.086,64.241,11.014c15.428,11.614,23.528,28.628,27.6,40.842c2.399,7.157,1.8,15.814,1.113,24.985
		c-0.771,10.971-1.585,22.328,3.086,31.671c2.528,5.057,7.843,8.143,12.557,10.842c2.486,1.457,4.886,2.829,6.643,4.329
		c6.943,5.957,11.186,11.829,13.029,17.828c1.242,4.114,0.686,8.357,0.128,12.857c-0.515,4.028-1.028,8.186-0.343,12.557
		c1.929,11.914,9.257,19.371,16.328,26.528c2.828,2.914,5.785,5.871,8.271,9.086c3.985,5.142,6.043,11.657,5.785,18.128
		l-17.485,5.829c-1.543-7.157-5.785-14.186-11.613-19.028c-2.271-1.886-4.843-3.386-7.329-4.8c-4.028-2.357-7.8-4.543-10.113-8.057
		c-3.558-5.314-2.743-12.557-1.929-20.185c0.471-4.286,0.985-8.7,0.6-12.814c-0.557-6.6-4.757-11.828-8.399-15.643
		c-0.814-0.857-2.144-0.857-3-0.043c-0.857,0.814-0.9,2.143-0.086,3c3.343,3.515,6.771,7.8,7.242,13.028
		c0.301,3.729-0.128,7.757-0.6,12c-0.9,8.057-1.8,16.414,2.614,23.014c2.871,4.328,7.243,6.9,11.528,9.385
		c2.443,1.414,4.757,2.786,6.729,4.414c5.571,4.629,9.557,11.829,10.457,18.6c-0.172,0.6-0.172,1.2,0.043,1.8
		c0.557,1.671,2.356,2.614,4.071,2.014l21.299-7.071c1.2-0.429,2.058-1.457,2.187-2.7c1.028-8.785-1.5-17.828-6.943-24.813
		c-2.699-3.514-5.785-6.643-8.742-9.643c-6.685-6.772-12.985-13.157-14.571-23.057c-0.558-3.429-0.086-6.985,0.386-10.714
		c0.6-4.972,1.243-10.114-0.386-15.514c-2.186-7.243-7.071-14.057-15-20.871c-2.186-1.885-4.928-3.471-7.585-5.014
		c-4.114-2.357-8.357-4.8-10.028-8.142c-3.9-7.757-3.172-17.743-2.4-28.328c0.686-9.428,1.371-19.157-1.414-27.471
		c-4.371-13.114-13.114-31.371-29.871-43.97c-16.07-12.085-48.813-16.071-69.298-12.171c-22.371,4.2-30.942,16.028-34.628,21.085
		c-0.428,0.643-0.771,1.114-1.072,1.458c-1.132,1.249-2.964,1.42-4.369,2.228c-1.68,0.965-3.221,2.459-4.544,3.857
		c-6.086,6.429-8.743,15.771-7.2,24.471c-10.028,14.442-13.371,35.356-11.914,45.428c0.686,4.371,2.057,8.571,2.829,12.9
		c1.328,7.628,0.3,15.728-2.957,22.756c-2.014,4.371-4.757,8.356-6.729,12.728c-6.729,14.957-4.329,32.271-2.357,46.199
		c0.129,0.899,0.6,1.628,1.286,2.143c-5.314,4.114-8.014,8.743-8.185,9.043c-0.043,0.085-59.013,121.412-59.013,121.412
		c-3.557,8.228-2.785,17.571,2.143,25.071c4.843,7.371,12.985,11.828,21.814,11.914l36.042,5.957v6.857l-16.114,34.842
		c-12,29.185-6.6,66.855,11.357,86.698c-82.541,8.657-148.11,36.128-195.424,81.984c-58.198,56.441-87.727,139.968-87.727,248.265
		v18.086c0,1.757,1.458,3.214,3.214,3.214h263.951c1.757,0,3.171-1.414,3.214-3.171c1.114-62.142,9.6-107.698,25.199-135.34
		c7.5-13.285,17.014-23.271,28.671-30l-6.643,25.028c-3.6,13.585,1.8,27.042,11.957,29.999l21.728,6.343
		c1.286,0.386,2.529,0.472,4.029,0.557c8.485,0,16.628-7.114,20.1-16.543c3.085,9.043,10.628,15.643,19.028,15.643
		c0.643,0,10.585-1.886,10.585-2.743c1.714,9.3,2.614,19.542,2.614,30.599c0,67.884-34.242,142.24-101.783,220.88
		c-13.928,16.071-24,27.899-30.813,36.213c-37.071,44.956-65.227,89.27-83.784,131.697c-18.6,42.599-28.628,86.354-29.742,130.11
		c-0.043,1.715,1.372,3.301,3.214,3.301h271.622c1.628,0,2.957-1.2,3.171-2.786c4.715-34.628,19.328-68.612,32.656-97.755
		c20.656-45.213,100.369-134.482,103.926-138.596l128.868,545.172h-337.234c17.614-6.129,33.857-16.328,47.613-30.042
		c24.257-24.214,37.756-56.356,37.971-90.513c0.214-33.813-12.813-65.741-36.771-89.869c-24.214-24.342-56.484-37.799-90.855-37.799
		h-42.342c-70.07,0-129.211,55.284-130.454,125.312c-0.985,56.741,35.271,105.383,85.926,122.911H571.354
		c-1.8,0-3.214,1.457-3.214,3.214c0,1.8,1.414,3.214,3.214,3.214h1179.271c1.757,0,3.215-1.414,3.215-3.214
		c0-1.757-1.458-3.214-3.215-3.214h-191.695l-44.441-187.881c1.671-1.929,3.643-3.686,5.957-5.314c0,0,0.985,25.371,0.985,25.414
		c0.429,11.185,18.386,11.485,19.114,0.257c0,0,2.357-38.87,2.271-39.214c0.686-1.371,1.028-2.785,1.285-4.199
		c3.172-16.5,2.443-29.699-2.271-40.285c-1.844-4.2-4.458-7.971-7.543-11.057c0.985-0.557,1.585-1.672,1.543-2.871l-6.686-136.497
		c0,0,82.883,117.34,84.083,119.14l12.386,20.785c0,0,0.043,0.129,0.086,0.215c2.957,7.928,6.856,15.643,9.171,23.785
		c2.143,7.5,2.828,14.742-0.257,21.085c-1.415,2.871-3.558,5.528-5.829,8.313c-4.242,5.144-8.571,10.5-8.442,17.872
		c0.215,9.343,7.671,16.37,15.729,22.628c5.014,3.899,9.557,4.542,15.214,1.542c13.456-7.156,25.799-16.199,36.685-26.784
		c3.343-3.258,7.114-7.2,9-12.429c2.442-6.814,1.199-13.843-0.043-20.699c-0.686-3.771-1.329-7.372-1.371-10.843
		c-0.043-3.429,0.514-6.943,1.757-10.671l16.028,20.057c1.714,2.143,4.328,3.343,7.156,3.343c7.114,0,12.515-7.972,8.443-14.271
		c0,0-21.3-32.828-21.514-33.042c-0.771-3.942-3.301-7.843-5.271-11.313c-1.972-3.558-4.2-6.986-6.686-10.2
		c-4.243-5.528-9.386-10.457-15.429-13.971c-5.699-3.301-12.385-5.144-18.856-5.144c-0.386,0-6.514,0.857-6.514,1.029
		c-3.043-6.943-16.114-36.085-17.4-38.914c-18.771-40.885-38.355-81.255-62.741-119.14c-1.242-1.929-3.343-4.114-5.399-3.086
		c-2.4,1.157-1.243,4.8,0.214,7.029c30.042,46.498,52.07,96.769,74.827,146.996c1.5,3.257,2.871,6.557,4.457,9.771
		c0.985,2.015-14.442,13.672-16.328,15.215c-4.328,3.514-8.571,6.471-12.3,8.528c-0.172,0-32.828-45.813-32.828-45.813
		l-84.555-119.482c-3.643-5.144-4.243-12.3-5.571-18.343c-2.657-12.171-29.443-146.354-29.571-146.911
		c-0.771-3.942-7.07-2.957-6.342,1.243c1.199,6.128,30.941,158.054,33.898,164.054c0.601,1.371,1.5,2.485,2.357,3.685
		c0,0,23.271,32.657,24.813,34.886l7.071,143.61l-49.67,5.186c0,0-42.727-323.35-44.356-381.591
		c3.771,0.814,6.129,0.729,7.715-0.557c1.114-0.9,1.628-2.186,1.542-3.601c-0.257-3.042-0.043-23.185-0.043-23.185
		c12.515,0.514,30.086,1.543,36.257,2.657c1.671,7.628,3.813,15.771,6.386,22.156c2.571,6.343,5.571,10.843,8.999,11.229
		c7.029,0.814,15.086,1.114,23.442,1.114c21.3,0,44.313-2.015,55.542-3.172c-0.343,29.057-10.843,93.77-12.086,100.412
		c-2.742,14.657-3.386,55.756-3.471,59.398c-0.086,4.114,6.343,4.328,6.428,0.129c0.086-3.643,0.729-44.228,3.343-58.327
		c1.286-6.771,12.086-73.112,12.214-102.298c2.015-0.343,3.857-1.671,3.258-4.028c0,0-26.1-104.954-26.143-105.126
		c-0.985-3.899-7.285-2.528-6.257,1.543l25.285,101.568c-12.557,1.329-54.728,5.357-80.526,2.486
		c-2.529-1.414-7.414-15.557-10.5-30.257c-0.9-20.785-0.729-42.213-0.514-62.998c0.171-22.199,0.471-44.442-0.687-66.598
		c8.528,3.514,15.6,4.628,22.199,4.628c6,0,11.914-1.028,17.829-1.885c2.742-0.386,2.143-4.757-0.644-4.243
		c-7.8,1.114-15.514,2.786-23.399,1.757c-4.243-0.557-15.942-4.886-16.113-4.929c-0.258-8.614,0-17.27,2.571-25.371
		c3.856-12.128,12.685-22.242,21.385-31.542c13.328-14.228,27.514-27.985,42.171-40.885c0.856-0.771,1.757-1.543,2.613-2.314
		l16.929,4.757c4.543,0.557,8.871,1.243,12.942,2.4c6.814,1.928,11.057,6.129,16.671,9.985c4.672,3.214,30.557,17.057,31.028,18.471
		c2.1,6.171,4.328,12.214,6.557,18c0.643,1.671,2.485,2.486,4.157,1.843c1.671-0.643,2.485-2.486,1.843-4.157
		c-1.329-3.429-28.971-91.412-29.228-92.269l34.327-11.4c9.3,21.943,35.871,88.112,34.671,126.554
		c-0.214,7.843-15.043,14.485-24.514,15c-21.429,1.243-59.013-18.6-83.569-33.213c-2.058-1.243-23.656-14.871-23.871-15.042
		c-3.214-2.528-7.028,2.914-3.6,5.314c0.985,0.686,8.914,6.043,20.442,13.029c0,0-14.485,87.812-14.528,88.155
		c-0.686,4.113,5.656,5.142,6.343,1.028l14.1-85.627c24.385,14.357,60.213,32.828,82.926,32.828
		c11.614,0,32.271-7.029,32.699-21.257c1.243-40.756-27.171-110.569-35.913-130.968c-0.643-1.543-1.371-2.7-3.128-3.086
		c0.899-3.171,1.757-6.257,2.228-9.557h30.429v5.486c0,1.757,1.457,3.214,3.214,3.214h87.855c1.757,0,3.214-1.414,3.214-3.214
		v-46.199C1778.267,777.849,1776.81,776.434,1775.053,776.434z M927.916,1796.709c-3.985,0-7.928-0.214-11.828-0.6
		c-61.284-5.914-109.369-57.728-109.369-120.597c0-66.813,54.384-121.197,121.197-121.197c66.855,0,121.197,54.384,121.197,121.197
		c0,62.869-48.042,114.683-109.369,120.597C935.844,1796.495,931.902,1796.709,927.916,1796.709z M973.086,1796.709h-5.228
		c0.557-0.171,1.114-0.386,1.671-0.6c50.014-17.229,86.012-64.799,86.012-120.597c0-56.442-36.813-104.44-87.683-121.197h5.228
		c32.656,0,63.298,12.771,86.269,35.913c22.757,22.885,35.143,53.185,34.928,85.284c-0.214,32.441-13.028,62.955-36.085,85.969
		c-19.842,19.8-45.127,31.928-72.041,34.628C981.829,1796.581,977.458,1796.752,973.086,1796.709z M1705.239,1532.716
		c0,0,18.172,28.156,18.3,28.328c1.843,2.828-3.171,5.914-5.186,3.385l-18.257-22.885
		C1701.383,1538.973,1705.068,1533.016,1705.239,1532.716z M1661.698,1525.13c0.985-2.742,1.971-6.3,2.657-10.199
		c0.942,0.471,5.313,1.886,10.07,5.186c6,4.2,10.886,9.686,14.871,15.728c1.543,2.357,5.058,0,3.558-2.356
		c-4.243-6.472-9.686-11.914-15.856-16.8c-5.443-4.285-12-5.785-12-5.785c0.729-5.101,0.899-14.614-1.5-20.485
		c4.628,0.343,9.257,1.8,13.285,4.156c9,5.229,16.585,14.528,23.313,28.5c1.414,2.914,0.943,4.328-0.771,6.985
		c-4.458,6.814-10.329,17.186-10.2,29.1c0.043,3.856,0.686,7.628,1.371,11.356c0.258,1.586-1.671,5.528-2.442,6.857
		c-1.457,2.571-3.601,4.757-5.7,6.813c-8.571,8.486-17.186,17.785-26.914,24.942c-2.871,2.101-5.999,3.814-9.343,5.101
		c-2.656,1.028-0.899,5.228,1.544,3.985c3.686-1.414,7.156-3.3,10.328-5.614c9.942-7.242,18.642-16.757,27.385-25.371
		c2.357-2.314,4.8-4.886,6.472-7.8c0.257,3.172,0.128,6.214-0.9,9c-1.414,3.942-4.586,7.243-7.457,10.028
		c-10.414,10.156-22.285,18.813-35.185,25.714c-3.515,1.843-5.229,1.371-8.271-0.986c-6.814-5.271-13.114-11.014-13.243-17.656
		c-0.085-5.015,3.172-9.043,6.986-13.671c2.399-2.957,4.929-6,6.643-9.557c0.985-2.015,1.672-4.072,2.143-6.172
		c5.229-0.686,11.057-0.086,13.586,0.257c2.014,0.258,4.028-1.2,4.199-3.343c0.172-3,0.687-11.742,0.472-15.984
		c-0.129-2.101-1.843-3.729-4.028-3.814c-4.714-0.258-16.285,1.114-16.414,1.114c-1.028-3.043-2.186-6.129-3.429-9.215
		c4.329,2.786,13.071-2.571,14.528-3.813C1656.384,1537.173,1659.512,1531.13,1661.698,1525.13z M1641.556,1558.558
		c4.371-0.514,10.757-1.242,14.956-1.285c0.172,3.386-0.171,10.585-0.428,14.785c-3.172-0.386-8.143-0.814-12.985-0.3
		C1643.398,1567.429,1642.756,1563.015,1641.556,1558.558z M1636.327,1507.773c1.543-1.242,3-2.485,4.371-3.729
		c5.872-5.1,10.714-10.071,13.028-12.6c0,0,1.414-1.543,1.543-1.8l1.457,1.543c4.243,7.113,2.143,22.885-1.071,31.713
		c-3.643,10.071-9.171,16.157-14.742,16.329c-3.857,0.128-7.372-2.658-9.558-7.629l-8.614-14.528
		C1622.87,1517.03,1631.656,1511.545,1636.327,1507.773z M1601.571,788.863c0-0.557,0.471-1.029,1.028-1.029h38.441
		c0.558,0,1.029,0.472,1.029,1.029v4.456c0,3.429-2.829,6.214-6.258,6.214h-27.599c-3.644,0-6.643-3-6.643-6.643V788.863z
		 M1473.902,840.247c1.071,2.229,2.229,3.471,2.229,6.043c-0.043,5.228-2.186,10.586-5.785,14.485l-36.728-1.885
		c0.042-5.014,2.828-9.729,5.785-14.7c2.571-4.286,5.186-8.7,6.214-13.671c0.9-4.328,0.515-8.7,0.086-12.942
		c-0.386-4.2-0.772-8.186,0.086-11.999c1.2-5.1,4.414-9.385,6.514-14.1c1.801-4.028,2.7-9.728,3.686-15.728
		c0.472-3.085,0.986-6.342,1.672-9.514c0.557-2.657-3.686-3.643-4.2-0.9c-0.686,3.3-1.2,6.557-1.714,9.729
		c-0.943,5.743-1.8,11.143-3.386,14.657c-2.229,4.971-5.485,9.514-6.729,14.871c-1.028,4.5-0.6,9.042-0.172,13.414
		c0.387,4.071,0.729,7.928,0,11.614c-0.9,4.285-3.342,8.4-5.742,12.385c-3.086,5.228-6.3,10.585-6.386,16.671l-14.014-0.729
		c-1.629-5.914,2.743-13.243,6.6-19.757c0.986-1.628,1.929-3.214,3.086-4.714c1.285-1.628,2.742-3.514,3.557-5.828
		c1.629-4.671,0.429-9.386-0.728-13.971c-1.843-7.157-3.429-13.371,4.886-19.842c9.985-7.8,7.714-15.942,5.485-23.828
		c-3.257-11.614-7.285-26.142,27.557-50.227c14.229-9.857,29.699-11.957,40.156-11.957c20.528,0,35.271,7.457,38.057,12.814
		c0.428,0.857,1.156,1.457,2.057,1.671c0.129,0.043,13.714,3.471,22.414,12.471c7.8,8.057,12.085,20.185,11.999,33.685
		c0,0-3.128-0.086-8.271-0.214c-1.929-12.429-10.285-26.399-21.942-36.085c-0.9-0.772-2.271-0.643-3,0.257
		c-0.771,0.9-0.644,2.271,0.257,3c10.414,8.743,18.3,21.514,20.314,32.699c-27.086-0.772-88.412-2.442-88.541-2.442
		c-2.657-0.086-4.2,3.043-2.657,5.143c3.128,4.157,5.614,13.885,1.929,20.571c-0.9,1.671-2.015,3.214-2.614,5.057
		c-1.586,4.843,0.386,9.386,2.143,13.328c1.286,2.914,2.485,5.657,2.229,8.1c-0.214,2.271-1.671,4.542-3.214,6.899
		c-0.386,0.6-0.771,1.2-1.115,1.8C1471.932,833.047,1472.617,837.59,1473.902,840.247z M1568.614,792.977
		c-0.643-6.257-2.143-12.514-4.328-18.514l13.157,0.343c1.028,2.486,1.371,4.714,1.113,6.728c-0.171,1.286-0.514,2.529-1.071,3.772
		c-0.6,1.5-1.414,3.043-2.271,4.628v3.043H1568.614z M1575.215,799.405v6.686h-31.585v-6.686H1575.215z M1482.303,849.675
		c0.171-1.114,0.257-2.229,0.257-3.343c0-3.643-1.328-5.743-2.871-8.871c-1.5-3.085,1.156-6.728,2.785-9.214
		c1.929-2.958,3.814-6.129,4.2-9.729c0.429-3.986-1.157-7.757-2.7-11.314c-1.5-3.343-2.742-6.257-1.929-8.786
		c0.472-1.414,1.414-2.657,2.144-3.943c3.643-6.685,3.128-15.557,0.471-22.242l72.642,2.015c2.442,6.042,4.071,12.342,4.757,18.728
		h-21.643c-1.757,0-3.214,1.457-3.214,3.214v13.114c0,1.757,1.457,3.214,3.214,3.214h21.128c-0.6,3.857-1.5,7.628-2.656,11.314
		c-6.215,19.371-20.914,39.771-43.028,40.971c-1.5,0.086-3,0.086-4.5-0.043C1500.73,863.947,1490.573,858.033,1482.303,849.675z
		 M1532.83,886.789c-0.429,4.286-20.143,18.985-33.985,18.985c-2.057,0-3.814-0.386-5.186-1.114
		c-12.686-6.771-7.285-23.699-7.028-24.428c0,0,1.629-8.743,2.442-12.6c0.258-1.157,0.515-2.357,0.772-3.643
		c6.515,4.028,13.629,6.643,21.043,7.2c1.028,0.085,2.186,0.128,3.128,0.128c5.829,0,11.485-1.243,16.843-3.557L1532.83,886.789z
		 M1359.306,898.746l51.77,70.584c0.729,12.385,1.758,24.814,3,37.028c0.429,4.114,6.9,3.514,6.386-0.643
		c-1.114-11.015-2.058-22.2-2.785-33.342c0.214-0.129,2.828-4.114,2.828-4.114c1.843,6.643,5.614,13.971,12.214,22.071
		c0,0-1.5,21.6-2.356,34.499l-18.558,12.471c-3.343,2.314-9.385,0.986-17.399-6.085c-0.043-0.257-70.241-112.068-70.241-112.068
		L1359.306,898.746z M1213.252,1179.839l-20.186-85.412h80.955c-0.942,2.186-1.928,4.328-2.914,6.514
		c-11.057,23.957-26.656,50.313-46.627,78.898H1213.252z M1219.895,1186.268c-1.243,1.757-2.528,3.514-3.857,5.313l-1.242-5.313
		H1219.895z M1306.721,996.2c1.114-10.8,1.672-21.642,1.672-32.528c0-13.114-0.729-25.756-2.229-38.013
		c1.371,0.386,2.785,0.557,4.242,0.557c3.215,0,6.386-0.943,9-2.614l27.686,44.099c-0.086,9.557-0.644,19.028-1.672,28.499H1306.721
		z M1344.691,1002.629c-3.6,28.842-11.229,57.385-22.799,85.369h-38.186c11.314-27.984,18.771-56.527,22.285-85.369H1344.691z
		 M1315.979,918.159c-3,1.929-7.415,2.1-10.372,0.343c-1.157-0.685-2.271-1.671-3.343-2.957c-1.457-1.8-2.614-3.771-3.428-5.957
		c4.328-0.043,8.656,0.043,12.985,0.386c0.899,0.043,3.3,0.214,3.942,1.114C1316.063,911.517,1316.149,918.074,1315.979,918.159z
		 M1299.222,921.631v0.043c1.843,13.457,2.742,27.471,2.742,41.999c0,10.886-0.557,21.728-1.714,32.528h-130.411l-20.186-85.369
		h142.797c1.071,3.214,2.7,6.214,4.886,8.829C1297.935,920.388,1298.578,921.074,1299.222,921.631z M1299.521,1002.629
		c-3.601,28.842-11.186,57.385-22.8,85.369h-85.197l-20.143-85.369H1299.521z M1276.937,1103.641
		c1.414-3.086,2.785-6.128,4.113-9.214h38.1c-0.942,2.143-1.929,4.328-2.914,6.514c-11.871,25.843-27.214,52.327-45.428,78.898
		h-38.57C1251.266,1152.368,1266.222,1126.868,1276.937,1103.641z M1322.063,1103.641c1.414-3.086,2.786-6.128,4.071-9.214h60.299
		l20.143,85.154l-128.055,0.258C1295.921,1154.211,1310.578,1128.626,1322.063,1103.641z M1328.835,1087.998
		c11.313-27.984,18.771-56.527,22.328-85.369h13.585l20.186,85.369H1328.835z M1351.892,996.2
		c0.643-6.214,1.114-12.471,1.328-18.728l8.957,14.271l0.043,0.042l2.785,4.414H1351.892z M1337.063,885.503
		c3.257,0.429,5.528,2.529,7.757,4.757c0.086,0.128,3.985,3.814,5.699,5.228c-1.285,0.6-25.07,12.942-25.499,13.157
		c-0.386,0-6.643-4.929-7.457-5.271c-3.171-1.2-6.6-1.414-9.942-1.543l-9.814-0.385c1.672-4.843,4.071-11.143,5.144-13.414
		c7.499-2.357,15.514-2.829,25.156-2.829C1331.063,885.203,1334.063,885.118,1337.063,885.503z M1060.127,390.601
		c-0.214,0.343-0.429,0.728-0.686,1.071c-2.143,2.915-15.171,17.485-38.099,18.042c-19.286,0.472-31.328-9.128-35.571-13.285
		c-2.614-2.571-4.157-4.757-4.929-6.3c2.572-0.772,10.928-2.657,18.428-4.243c2.357-0.514,2.528-2.7,2.871-4.671l2.015-12.343
		c3.343,1.671,11.057,1.886,11.871,1.886c6.942,0.043,15.343-1.5,21.6-4.628c0.171,0,1.714,14.871,1.714,15.043
		c0.3,2.357,0.814,4.286,3.343,4.843C1043.713,386.315,1056.527,389.787,1060.127,390.601z M970.901,287.833
		c0.085-2.958,0.257-5.915,0.429-8.872c0.214-3.9,0.385-7.757,0.771-11.485c2.1,1.8,10.971,5.657,14.271,6.214
		c7.885,1.414,16.028-0.171,23.785-1.543c10.242-1.843,22.799-4.157,31.499,3.3c3.771,3.214,5.399,7.457,6.343,12.171
		c2.014,16.757,5.399,25.671,7.585,31.585c1.114,3,2.614,6.171,2.144,9.428c-0.943,6.6-3.301,13.029-6.986,18.557
		c-3.6,5.4-8.356,9.385-14.185,12.171c-5.872,2.829-11.914,4.585-17.785,4.929c-6.815,0.386-13.757-1.114-19.628-4.586
		c-12.386-7.328-19.2-21.514-22.585-31.071c-2.057-5.871-3.6-11.656-4.585-17.228C970.601,303.646,970.558,295.718,970.901,287.833z
		 M949.43,348.431c1.972-4.329,4.671-8.314,6.685-12.643c3.815-8.229,5.014-17.657,3.472-26.528
		c-0.686-4.286-2.186-8.443-2.786-12.771c-1.157-7.843,1.243-23.914,8.143-36.513c0.171,0.299,0.986,1.8,1.329,2.228
		c-0.814,5.486-1.114,11.057-1.372,16.457c-0.128,2.914-0.3,5.785-0.514,8.657c-0.472,5.914,0.171,18.857,1.243,25.199
		c1.029,5.872,2.657,12.043,4.886,18.257c6.171,17.442,15.685,29.614,27.557,35.656l-2.186,13.028
		c-12.728,3.214-29.142,7.157-39.985,8.828c-2.1,0.343-8.742,2.957-8.528,2.614c-1.2-0.128-1.8-15.085-1.8-21.728
		C945.573,362.059,946.516,354.902,949.43,348.431z M899.502,555.169c-14.185,0-23.956-15-18.299-27.985l58.713-120.854
		c0.514-0.814,6.299-9.985,16.971-11.657c5.014-0.814,11.1-2.014,17.443-3.429c1.028,2.914,3.471,6.386,6.942,9.771
		c4.714,4.628,17.828,15.128,38.699,15.128c14.058,0,28.071-4.586,38.57-14.057c2.271-2.014,4.372-4.2,6.129-6.685
		c0.9-1.2,1.5-2.443,1.972-3.471l13.328,2.7c2.699,0.472,5.057,1.115,7.199,1.929c0.601,0.214,1.2,0.471,1.715,0.771
		c4.8,2.314,5.828,5.1,9.257,10.028c1.028,2.228,11.313,20.271,20.742,43.285c8.314,20.228,17.614,44.784,23.956,67.284
		c5.229,18.557-2.699,23.914-8.999,26.271l-26.485,9c0,0,0-54.814,0-55.242s5.871-1.2,6.343-1.329c4.028-0.9,2.7-7.157-1.371-6.257
		c-1.629,0.343-3.3,0.643-4.972,0.943v-25.628c0-1.757-1.414-3.214-3.214-3.214h-21c-0.771-7.157-2.7-24.685-3.899-28.457
		c-1.243-3.943-7.414-2.057-6.129,1.929c0.814,2.614,2.485,16.414,3.558,26.528H958.001c2.057-7.886,4.5-15.686,7.286-23.314
		c1.414-3.9-4.628-6.086-6.042-2.186c-3.043,8.314-5.7,16.886-7.929,25.5h-12.814c-1.757,0-3.214,1.457-3.214,3.214v51.685
		c-12.128-1.629-22.113-1.2-29.699,1.2c-3.857,1.2-1.886,7.586,1.972,6.129c6.814-2.186,16.157-2.486,27.728-0.858v37.2
		C935.287,561.04,899.674,555.169,899.502,555.169z M1100.926,468.899v114.554h-159.21V468.899H1100.926z M653.809,1041.07v-14.871
		c0-106.497,28.414-188.952,85.755-243.637c48.042-45.813,118.068-73.541,195.938-80.612c0.6-0.086,2.486-0.471,2.829-0.514
		l0.429,24.6c0,1.757,1.457,3.086,3.214,3.086h16.8l23.314,110.268l-5.957,22.543c-1.671-0.086-3.343-0.128-5.057-0.128
		c-35.871,0-62.398,14.828-78.855,44.013c-15.899,28.113-24.642,73.627-26.014,135.253H653.809z M937.387,905.817
		c-15.899,28.113-24.642,73.627-26.013,135.253h-38.699c1.328-60.47,9.771-104.911,25.113-132.082
		c15.471-27.428,39.471-40.756,73.284-40.756c1.157,0,2.271,0,3.386,0.042l-0.643,2.357
		C958.687,877.917,946.516,889.703,937.387,905.817z M1019.671,880.189c-0.899,2.914-7.457,5.614-12.128,6.257
		c-7.071,0.985-15.557-2.657-16.671-3.6c-3.171-2.657-7.5,1.671-4.5,4.585c5.185,5.057,15.128,6.386,22.027,5.4
		c3.644-0.514,7.586-1.329,10.886-3.257l-1.157,26.571c-0.814,11.742-10.8,20.056-17.656,18.042l-21.729-6.343
		c-6.643-1.928-10.157-12.299-7.542-22.156l11.614-43.971c1.414,10.329,8.314,18.385,17.742,19.843
		c3.471,0.557,7.071,0.043,10.372-1.2c1.585-0.6,8.914-3.686,8.999-6L1019.671,880.189z M1021.042,858.847
		c-1.499,9.857-10.328,16.5-17.613,16.5c-9.3,0-14.4-9.086-14.442-17.485l-0.043-16.714c0-0.214-23.614-112.026-23.614-112.026
		h55.712V858.847z M945.144,722.779c0,0-1.028-59.185-1.028-59.57c-0.085-4.071-6.429-4.071-6.429,0.086l0.557,31.242
		c-16.885-15.3-26.099-51.342-13.157-82.712l10.8-23.314c0.557,0.814,1.543,1.371,2.614,1.371h165.639
		c1.8,0,3.214-1.457,3.214-3.214l11.828,25.028c14.1,34.242,1.929,74.099-18.042,86.612c0,0-0.3-35.056-0.3-35.099
		c-0.043-4.028-6.429-4.071-6.429,0.086l0.557,59.484H945.144z M1027.6,729.121h52.499c0,0-19.757,112.026-19.757,112.197v14.743
		c0,8.271-5.015,17.271-14.1,17.485c-8.829,0.214-17.357-7.671-18.643-16.071V729.121z M1045.898,879.975
		c10.157,0,17.829-7.843,20.1-17.356c0,0,1.886,8.271,1.886,8.314c0.3,7.2-5.271,11.442-11.229,14.1
		c-4.671,2.1-9.985,2.657-15.128,2.272c-8.442-0.6-13.843-8.829-13.843-8.829l-0.042-7.757
		C1032.271,876.289,1038.956,879.975,1045.898,879.975z M1044.484,933.159c-6.813,2.314-16.371-5.228-16.714-16.843l-0.086-28.242
		c0,1.2,4.972,3.3,5.915,3.729c8.313,3.514,17.613,2.357,25.713-1.2c2.186-0.986,4.372-2.1,6.429-3.343
		c0.857-0.514,5.143-3.129,4.843-4.372l4.586,20.143c2.271,9.857-1.8,20.485-8.7,22.799L1044.484,933.159z M815.419,1483.646
		c1.543-41.827,11.314-83.655,29.142-124.368c18.3-41.913,46.156-85.755,82.841-130.24c6.771-8.229,16.799-20.057,30.728-36.085
		c68.569-79.883,103.325-155.61,103.325-225.08c0-11.785-0.985-22.671-2.914-32.614l9.986-3.342
		c10.156-3.386,15.942-16.971,12.942-30.299l-14.229-62.57l19.414-109.926c0,0,11.485,0,11.528,0c5.399,0,3.128-13.542,3.086-16.928
		c45.941,11.571,85.154,31.071,117.254,58.37c3.386,2.872,6.771,5.914,10.028,9c3,2.829,7.499-1.8,4.414-4.671
		c-3.343-3.171-6.814-6.257-10.286-9.257c-13.328-11.485-28.07-21.471-43.455-29.999c-16.157-8.957-33.171-16.286-50.656-22.157
		c-9-3-18.085-5.442-27.257-7.928c0.472,0,2.485-1.243,2.829-1.542c68.141,9.728,118.539,31.371,159.51,66.555
		c34.328,29.485,58.242,65.656,71.441,108.297c-1.071-0.043-6.985-0.086-6.985-0.086c-7.256-0.066-14.509,0.337-21.642,1.714
		c-3,0.642-5.7,1.114-8.229,2.914c-0.043,0.086-0.128,0.171-0.171,0.257c-8.743-31.885-23.186-60.341-43.199-85.155
		c-2.614-3.214-7.628,0.729-5.014,4.071c21.085,26.099,35.784,56.398,44.056,90.598c-1.543,4.329-3.729,11.228-3.729,11.228
		h-141.683c-0.128,0-0.257,0-0.343,0.043c0,0-9-38.013-9.043-38.228c-0.942-4.028-7.242-2.528-6.257,1.5l74.741,315.978
		c0.043,0.172,0.086,0.344,0.129,0.515l3.343,14.143c-14.271,19.285-30.428,39.514-48.471,60.599
		c-44.956,52.284-76.541,95.226-93.94,127.711c-17.014,31.714-28.07,64.327-32.87,96.983H815.419z M1113.697,1386.876
		c-13.157,28.757-27.514,62.228-32.742,96.77h-38.699c4.8-31.585,15.557-63.17,32.057-93.94
		c17.186-32.057,48.513-74.655,93.169-126.555c16.757-19.585,31.928-38.484,45.514-56.612l8.699,36.771
		C1217.151,1248.537,1134.782,1340.764,1113.697,1386.876z M1218.009,1199.81c3.343-4.586,6.6-9.085,9.729-13.542h38.527
		c-11.957,17.099-25.113,34.113-39.427,50.955L1218.009,1199.81z M1228.68,1244.979c16.586-19.37,31.843-39.041,45.471-58.712
		l133.925-0.258l20.271,85.627h-193.367L1228.68,1244.979z M1301.578,1553.501h169.41c-0.557,1.328-1.629,4.114-1.672,4.157
		c-1.542,4.156-2.785,8.143-3.899,11.742c-2.743,8.485-5.1,18.557-14.143,22.414c-2.614,1.114-5.485,1.886-8.485,2.742
		c-7.028,1.886-14.313,3.857-18.9,10.328c-5.443,7.715-3.6,17.743-0.771,27.429c0.3,1.157,0.729,2.957,1.371,4.285h-103.111
		L1301.578,1553.501z M1482.045,1586.543c-1.928,2.871-6.471,8.571-9.214,11.785c-2.271-2.057-5.871-5.143-9.9-7.5
		c2.699-3.343,4.542-7.371,6.128-11.871C1472.874,1581.058,1478.617,1584.186,1482.045,1586.543z M1552.329,1796.109h-193.366
		l-13.972-59.013c0,0,192.938-0.086,193.324-0.257L1552.329,1796.109z M1515.815,1641.956l21.043,88.712h-193.367l-20.613-87.684
		h112.325c6.644,0.814,13.371,0.729,20.1,0.729c7.543,0,15.214-0.686,22.671-1.757H1515.815z M1496.788,1635.527
		c4.843-4.071,7.671-9.771,10.414-15.343c0.813-1.628,1.585-3.214,2.399-4.714l4.714,19.886L1496.788,1635.527z M1534.115,1628.199
		c-0.214,3.343-6.171,3.172-6.3-0.129l-1.114-29.014c2.571-1.371,9.214-4.071,9.514-4.199
		C1536.215,1594.857,1534.115,1628.027,1534.115,1628.199z M1535.958,1547.458c4.157,9.386,4.757,21.343,1.843,36.471
		c-0.257,1.243-0.514,2.443-0.985,3.129c-0.686,0.942-2.229,1.499-3.857,2.143c-5.914,2.229-13.714,5.7-20.185,11.656
		c-1.801,2.015-3.643,3.986-5.4,6c-2.357,3.257-4.2,6.943-5.957,10.5c-2.828,5.743-5.485,11.143-10.114,14.271
		c-6.942,4.628-17.442,4.757-25.499,5.313c-11.014,0.729-22.585,0.258-33.685-1.371c-0.986-0.857-2.4-3.514-2.829-5.057
		c-2.356-8.143-4.028-16.414-0.171-21.9c3.257-4.585,9.128-6.171,15.342-7.885c3.086-0.814,6.301-1.715,9.343-3
		c2.357-0.985,4.329-2.271,6.043-3.686c4.5,2.442,8.7,6.171,10.5,7.843c1.543,1.414,3.985,1.328,5.356-0.3
		c1.929-2.314,7.543-9.086,9.9-12.643c1.199-1.758,0.772-4.115-0.943-5.486c-3.729-2.871-14.014-8.528-14.228-8.613
		c0.386-1.157,1.628-5.271,1.928-6.172c2.7,2.357,6.686,3.514,11.528,3.514c4.372,0,17.357-1.156,26.442-7.799
		c1.8-1.329,3.814-2.486,5.528-4.114c1.243,2.1,2.186,4.199,2.915,6.557c2.143,6.943,3.042,14.1,2.613,21.257
		c-0.171,2.699,4.072,3.043,4.286,0.257c0.429-7.714-0.515-15.385-2.786-22.8c-0.214-0.686-3.899-8.57-4.113-8.57
		c4.628-5.872,7.799-13.629,8.956-20.4C1531.158,1539.444,1534.072,1543.173,1535.958,1547.458z M1480.803,1539.744l40.627-4.243
		c-2.399,14.271-8.442,23.399-21.771,28.114c-10.371,3.686-23.186,3.214-24.643-0.472
		C1474.76,1562.415,1480.245,1542.529,1480.803,1539.744z M1473.646,1537.345c0.086,0.643,0.343,1.242,0.729,1.714
		c-0.643,3.128-1.2,5.828-1.714,8.014h-172.582l-20.185-85.412h184.238L1473.646,1537.345z M1453.846,1379.505l9.515,75.727h-185.01
		l-20.186-85.369h192.81C1451.274,1369.862,1453.846,1379.505,1453.846,1379.505z M1256.665,1363.435l-20.185-85.369h193.366
		l20.185,85.369H1256.665z M1445.875,1317.964l-73.112-309.421l15.685,25.027c10.886,14.614,23.914,11.101,26.957,9.043
		l14.399-9.686c-3.086,45.642-6.771,102.255-6.899,113.012c0,1.543,1.199,2.914,2.699,3.215c0.386,0.085,2.872,0.856,3.214,0.942
		c-0.042,0.214,1.2,28.071,2.443,43.284C1435.032,1239.28,1441.975,1290.707,1445.875,1317.964z M1438.118,1120.697
		c-0.043,0.171-0.343,18.128-0.129,25.113c-2.528-0.385-8.485-2.228-8.571-2.271c0.642-20.657,6.899-112.112,9.642-151.839
		c0.257-3.214,0.257-3.686-0.557-4.5c-21.556-25.714-11.57-41.656-4.285-53.271c0,0,17.742-32.056,19.2-34.97
		c2.871-5.871,5.184-10.5,11.699-12.643l12.942-3.557c-0.3,0.557-1.328,2.529-1.714,3.257c-9.771,20.1-19.2,40.756-28.028,61.284
		c-1.929,4.543-4.371,10.243-4.285,16.243c0.043,1.071,2.657,85.069,1.628,95.826
		C1445.018,1066.185,1438.118,1120.654,1438.118,1120.697z M1504.588,928.402c-9.215,9.814-18.557,20.528-22.843,33.984
		c-3.6,11.4-3.086,23.785-2.614,34.671c0.9,21.171,0.729,42.856,0.558,63.855c-0.172,19.628,0.386,60.342,0.386,60.342
		c-13.5-1.543-28.843-2.058-35.186-2.872c0-0.086,6.558-52.155,7.2-58.412c1.071-11.144-1.629-95.484-1.629-96.512
		c-0.042-4.671,1.972-9.429,3.771-13.628c5.914-13.714,12.043-27.471,18.429-41.099c2.014,6.257,7.028,11.571,13.414,13.414
		c5.228,1.5,13.628,2.143,18.514-0.729c2.356-1.372,0.214-5.1-2.229-3.685c-1.672,0.986-3.943,1.114-6.301,1.114
		c-2.914,0.043-5.999,0-8.742-0.814c-6.899-2.015-11.957-9.386-11.271-16.543c1.114-2.357,2.228-4.671,3.344-6.985
		c1.114,6.085,4.285,12.085,11.271,15.814c2.271,1.243,5.058,1.885,8.186,1.885c12.514,0,28.842-9.899,35.827-17.014
		c3.129-3.214,4.629-6,4.586-8.742l-0.171-1.843c2.571,0.814,7.457,2.914,7.542,2.957
		C1532.016,900.46,1517.873,914.174,1504.588,928.402z M1628.398,915.802l-25.156-14.956c-8.186-8.914-19.542-11.442-31.156-12.857
		c0,0-23.485-6.6-23.571-6.643l-10.071-2.829l-1.457-13.928c0.686-0.429,3.043-0.815,3.601-0.815c0,0,19.499,0.386,19.628,0.386
		c4.071,0.043,4.157-6.428,0.043-6.428l-14.057-0.257c0.985,0,3.856-4.071,4.499-4.843c1.629-1.928,3.172-3.985,4.543-6.085
		c4.243-6.343,7.543-13.542,9.771-20.828c1.371-4.243,2.356-8.7,3-13.199h7.2c0,0,0.043,4.543,0,4.628
		c-1.972,3.643-1.286,6.9,2.356,10.114c-1.028,1.329-0.985,5.743-1.071,7.371c-0.214,4.028,2.1,6.643,4.371,9.771
		c2.743,3.771,3.943,8.7,3.386,13.371c0,0-7.8-0.472-7.843-0.472c-4.156-0.257-4.543,6.129-0.386,6.428l10.629,0.6
		c0.043,0.043,0.128,0.043,0.171,0.043c1.457,0,2.743-0.985,3.086-2.357c2.014-7.286,0.6-15.257-3.814-21.385
		c-2.7-3.729-4.199-5.614-2.7-10.414c2.957,0.943,5.914,1.457,8.914,2.185c4.114,0.815,7.972,1.586,13.372,11.657
		c0.557,1.028,2.229,3.128,2.271,3.257C1608.042,847.747,1629.556,916.146,1628.398,915.802z M1643.698,831.762
		c-0.085,0.214-31.027,10.842-31.027,10.842c-0.601-0.514-1.028-1.071-1.329-1.585c-4.071-6.986-10.757-15.257-19.885-15.257
		c-1.329-0.214-4.243-1.028-6.386-1.757c-1.157-0.386-2.657-0.729-3.429-1.843c-0.557-0.857-0.942-1.8,0.558-1.8
		c0.043,0,0.085-0.043,0.128-0.043c2.058,0,64.713,0.043,64.713,0.043C1646.398,824.562,1645.284,828.376,1643.698,831.762z
		 M1683.983,813.934h-102.298c0,0,0,0-0.043,0v-22.371h13.5v1.329c0,7.2,5.871,13.071,13.071,13.071h27.599
		c6.986,0,12.686-5.657,12.686-12.643v-1.757h35.485V813.934z M1771.838,822.633h-81.427v-39.771h81.427V822.633z"/>
	<path style="fill:#2B2150;" d="M742.649,1136.383c-1.8-11.229-7.2-19.242-15.256-22.542c-21.385-8.743-40.885,16.799-47.785,33.599
		c-4.886,11.914-6.685,24.342-4.971,35.014c1.543,9.813,5.871,17.143,12.299,21.085l-5.142,12.514l-4.2-1.714
		c0.514-2.357,0.814-5.015,0.728-7.714c-0.128-3.601-2.829-6.729-6.3-7.586c-4.2-0.985-7.243,1.586-9.643,4.714
		c-2.743,3.558-5.314,7.243-8.571,10.328c-0.514,0.515-7.757,6.429-8.4,5.786l-84.212-35.271l-39.213-100.969
		c11.785-1.286,20.228-5.786,26.699-14.186c2.4-3.129,15.3-21.686,19.714-36.042c0.514-0.472,0.943-0.9,1.371-1.371
		c4.929-5.186,9.343-10.972,13.028-17.229c2.872-4.8,5.357-9.428,7.457-13.885c0.086,0.043,0.129,0.085,0.214,0.128
		c2.7,1.457,5.872,2.142,9.085,2.142c5.143,0,10.543-1.757,14.914-5.1c3.3-2.571,5.185-6.514,5.229-11.057
		c0-3.343-0.943-6.685-2.657-9.386c9.214-5.057,15.557-16.328,14.657-27.213c-0.857-10.286-7.8-19.114-17.014-23.442
		c-2.228-1.071-9.6-4.028-9.6-4.028s-0.428-3.343-0.6-4.886c-0.686-5.272-3.171-10.2-6.728-14.1
		c-4.628-5.057-11.057-8.571-17.871-9.428c-2.314-0.3-4.714-0.3-7.028,0c-2.014,0.257-6.429,1.328-6.429,1.328
		s-1.886-1.243-2.657-1.8c-7.414-5.657-18.643-14.185-30.857-5.143c-1.029,0.772-4.028,3.643-4.543,4.114
		c0-0.086-8.785-5.057-9.557-5.4c-8.7-3.514-18.942-1.457-27.299,2.314c-9,4.028-13.243,12.771-13.371,12.942
		c-0.514,0.171-1.157,0.471-1.886,0.814c-7.371,3.3-25.371,14.1-32.613,42.385c-7.157,27.728,3.814,38.871,6.042,40.799
		c-7.928,13.5-9.771,25.542-7.286,36.898c-12-1.228-21.316,0.472-26.877,1.948c-10.868,2.888-23.421,7.454-31.63,15.403
		c-4.727,4.577-9.179,9.439-13.544,14.359c-11.333,12.772-22.074,26.072-32.659,39.467c-10.626,13.445-21.052,27.048-31.36,40.738
		c-6.582,8.742-13.117,17.52-19.587,26.345c-0.698,0.952-1.434,1.888-2.096,2.865c-1.885,2.786-3.214,76.412-3.342,76.584
		c-5.872,6.856-20.957,24.728-26.1,40.627c-0.9,2.743-0.043,5.058,1.843,7.114c-10.885,40.456-3.3,94.112,31.885,226.623
		c1.072,3.986,7.329,2.4,6.214-1.628c-33.642-126.683-41.913-182.053-32.613-220.666c2.014,1.242,17.228,9.985,17.356,10.028
		c-0.128,14.485-0.214,28.413-0.3,40.713c0,1.8,1.5,3.214,3.257,3.214l6.386-0.085c-4.029,13.285-1.371,41.956-0.643,49.07
		c-0.514,7.028,2.4,14.527,8.186,21.042c7.243,8.143,17.657,13.585,26.742,13.886c2.058-0.043,3.943-0.943,5.657-2.743
		c6.814-7.157,10.885-30.085,12.128-42.856c1.543,1.457,3.129,2.829,4.328,3.686c3.3,2.314,11.314,4.286,14.743,1.286
		c4.457-3.9,5.272-8.786,0.3-12.6c-4.372-3.386-9.171-14.828-10.843-19.886c-1.114-3.471-4.971-8.313-8.485-12.042
		c0.985-0.472,1.714-1.457,1.8-2.614l0.343-4.5c7.286,4.2,12.428,5.657,17.399,7.071c3.214,0.942,6.214,1.8,9.9,3.343
		c0.857,0.386,2.143,0.3,2.957-0.086c1.114-0.514,3.343-1.586,8.614-19.542c2.957,1.157,17.356,6.813,19.5,7.628
		c-6.386,13.843-5.7,15.557-5.229,16.714c0.343,0.814,1.157,1.629,1.971,1.972c9.428,3.6,19.414,5.528,27.213,5.528
		c1.886,0,3.6-0.129,5.186-0.343l2.228,168.725l-35.785,184.667l-55.413-3.386l33.257-172.281c0.042-0.215,0.042-0.387,0.042-0.601
		c0,0,1.886-173.31,1.886-173.867c0.043-4.157-6.343-4.243-6.428-0.086l-1.886,173.61l-34.028,176.396l-32.271-3.128l35.571-185.481
		c0,0-8.7-69.341-8.743-69.727c-0.343-2.743-4.542-2.187-4.243,0.557l8.657,69.041l-39.385,205.066l-32.828-2.785l2.829-16.028
		l25.542,2.442c2.614,0,2.829-3.985,0.214-4.285l-25.028-2.442l30.557-174.382c5.485,0.771,10.971,1.157,16.543,1.157
		c1.243,0,2.528-0.043,3.814-0.086c4.114-0.129,3.9-6.472-0.214-6.386c-7.243,0.172-15-0.257-22.156-1.671
		c-1.714-0.301-3.386,0.856-3.729,2.57c0,0-35.228,200.996-35.313,201.467c-0.514,3,2.186,3.687,4.457,3.9l-2.1,10.971
		c-1.414-0.086-2.7,0.686-3.257,1.972c-6,13.971-6,39.214-4.543,48.728h-24.299c-1.8,0-3.214,1.457-3.214,3.214
		c0,1.8,1.415,3.214,3.214,3.214h319.964c1.8,0,3.214-1.414,3.214-3.214c0-1.757-1.414-3.214-3.214-3.214h-66.299
		c0.3-1.457,0.729-4.2,1.029-7.543c0.214-0.3,0.343-0.686,0.343-1.114c0-0.257-0.043-0.557-0.171-0.814
		c0.214-2.742,0.3-5.785,0.128-8.699c-0.214-5.101-1.157-9.943-3.514-12.558c-7.114-7.885-20.057-7.757-29.785-7.456
		c-6.514,0.214-13.157,0.128-19.628-0.857c-9.729-1.5-14.185-4.929-21.771-10.843l-2.871-2.229
		c-1.886-1.457-4.286-2.057-6.643-2.271c-1.372-0.128-6.386,0.086-6.728-0.214c-0.471-0.429-0.943-0.9-1.372-1.372l8.7,0.601
		c1.543,0,2.872-1.071,3.171-2.614l40.07-207.038c0.043-0.214,0.086-0.428,0.086-0.686l-2.229-171.124
		c1.8-1.243,2.486-2.743,2.657-3.6c0,0,17.571-57.642,17.571-57.813c5.1-8.442,25.799-47.527,42.128-93.983
		c5.014,9.086,13.843,24.771,17.314,28.499c25.157,27.042,115.412,46.714,115.668,46.714c1.114,0,2.186-0.601,2.743-1.586
		c2.743,1.371,7.243,3.472,10.457,4.285c-0.343,2.144-0.128,4.329,0.729,6.386c1.757,4.2,6.171,7.114,10.714,7.114
		c4.371,0,8.271-2.443,10.242-6.257c0.215-0.429,4.929,0.515,5.529,0.558c2.7,0.214,5.571,0.042,8.1-1.114
		c2.614-1.2,4.585-3.301,6.257-5.4c2.486-3.043,9.214-20.399,9.986-26.785c0.471-3.515,0.985-7.457,0.257-11.442
		c-0.6-3.472-3.985-6.386-8.357-8.528l4.8-11.657c0.686-1.628-0.086-3.514-1.757-4.199l-4.714-1.929l5.185-12.6
		c1.629,0.428,3.3,0.643,5.057,0.643c14.786,0,31.113-14.485,39.642-35.228C742.563,1159.439,744.321,1147.011,742.649,1136.383z
		 M279.975,1296.021c-2.572-1.586-19.114-10.457-18.685-11.871c3.729-11.614,13.114-24.686,19.328-32.527
		C280.361,1266.15,280.147,1281.279,279.975,1296.021z M336.888,1738.125l0.257-1.414l40.713,2.785
		c1.457,1.586,3.214,3.472,5.229,5.4c-6.257,3-16.457,4.242-28.157,4.242c-4.714,0-9.557-0.257-14.185-0.771
		c-0.943-0.729-5.829-4.542-5.829-4.542c-2.486-1.929-5.743-2.271-8.186-2.314c-0.128-0.043-0.6-1.114-0.729-1.414l7.714,0.643
		C335.259,1740.739,336.588,1739.668,336.888,1738.125z M301.789,1715.754l32.271,3.086l-2.957,15.257l-32.313-2.743
		L301.789,1715.754z M265.704,1734.996l52.542,4.457c0.471,0.943,0.942,1.929,1.457,2.957c-0.386,0.172-0.771,0.344-1.157,0.601
		c-6,3.856-17.356,6.042-31.199,6.042c-8.143,0-16.542-0.813-23.914-2.271L265.704,1734.996z M405.372,1784.752l-79.027-0.729
		c-1.971,0-3.6,0.943-3.6,2.144c-0.042,1.199,1.586,2.143,3.557,2.143l78.641,0.686c-0.386,3-0.9,7.114-0.814,7.114
		c0,0-147.811-0.043-148.411,0c-0.171-1.457-0.385-4.929-0.471-7.758c0,0,35.57,0.215,35.613,0.215c2.743,0,2.786-4.285,0-4.285
		l-35.742-0.215c-0.172-9.386,0.514-22.156,3.771-31.627c8.614,1.971,18.556,3.042,28.456,3.042c8.871,0,25.199-0.899,34.842-7.071
		c0.729-0.429,2.1-0.514,2.915-0.514c-3.771,4.285-7.457,11.014-8.014,12.899c-0.772,2.614,3.386,3.899,4.114,1.2
		c0.514-1.758,3.128-6.086,5.614-9.386c1.371-1.843,2.7-3.343,3.643-3.942c0.128,0.042,3.3,2.528,3.3,2.528
		c-0.943,0.557-1.757,1.371-2.486,2.314c-2.614,3.257-4.157,8.143-4.542,9.428c-0.771,2.614,3.386,3.814,4.114,1.157
		c0.557-1.972,1.2-3.985,2.186-5.785c0.471-0.943,1.072-1.844,1.843-2.615c0.686-0.686,1.372-1.371,2.443-1.757
		c0.257,0.215,0.557,0.386,0.814,0.601c9,6.686,16.585,9.985,40.842,9.471c1.2,0,2.443-0.043,3.728-0.043
		c6.9,0,16.585,0.558,20.743,5.271C405.415,1771.424,405.672,1778.495,405.372,1784.752z M473.17,1790.624
		c-0.086,0.856-0.986,4.714-0.943,5.485c0,0-55.07,0.043-61.627,0c0.3-1.243,0.729-3.857,1.072-7.028l61.584,0.472
		C473.256,1789.896,473.213,1790.28,473.17,1790.624z M426.071,1763.41c4.5,0.686,9.942,1.028,16.928,0.985
		c2.443,0,4.843-0.086,7.286-0.086c4.114,0,8.228,0.129,12.257,0.943c3.257,0.686,6.814,1.843,9.085,4.414
		c0.986,1.157,1.585,3.601,1.843,6.558c0.214,2.742,0.214,5.999,0.043,8.999v0.043l-61.542-0.472
		c0.257-4.886,0.171-10.328-0.985-14.57c0.428-3.386,1.714-6.729,3.686-9.472C414.757,1760.624,421.614,1762.768,426.071,1763.41z
		 M407.558,1755.996c1.157,0.857,2.357,1.671,3.557,2.356c-1.285,1.886-2.357,3.943-3.128,6.172c-1.157-1.2-2.486-2.186-3.943-3
		C404.729,1759.424,405.972,1757.496,407.558,1755.996z M388.015,1749.439c3.129-1.564,5.483-1.79,8.958-0.986
		c0.852,0.197,7.335,4.744,7.112,4.972c-1.757,1.8-3.128,3.942-3.985,6.3c-6.728-2.314-14.871-2.271-21.299-2.143
		c-12.257,0.3-19.586-0.301-25.2-2.015h1.329C363.287,1755.567,378.33,1754.753,388.015,1749.439z M393.715,1734.14l-55.327-3.771
		l2.829-14.657l55.413,3.429L393.715,1734.14z M673.094,1232.209l4.5-10.929l9.471,3.9l-3.642,8.828
		C679.908,1232.938,676.265,1232.338,673.094,1232.209l-0.043,0.086C673.051,1232.295,672.965,1232.166,673.094,1232.209z
		 M577.31,1011.5c-3.514,5.871-7.585,11.271-12.171,16.114c-0.471,0.514-0.985,0.985-1.457,1.5
		c-1.714,0.899-10.628,5.528-17.571,5.528c-4.243,0-5.571-1.758-6.257-3.086c-4.629-9.429-15.343-12.472-22.628-14.528
		c-16.714-4.8-27.471-11.399-31.971-19.671c-3.128-5.7-3.471-12.385-0.985-20.442c0.6-2.057,0.343-4.071-0.857-5.657
		c-1.243-1.629-3.3-3-5.442-2.657c-0.6,0.086-1.543-2.357-1.671-2.657c-1.5-3.857-1.714-8.014-1.972-12.085
		c-0.257-3.557-1.114-7.456,0.643-10.757c1.372-2.614,3.686-4.971,6.814-4.971c2.957,0,5.529,1.971,6.557,4.671
		c0.686,1.928,1.414,6.3,0.086,8.1c-1.629,2.186,0.171,5.829,3.086,5.1c4.157,1.757,9.342,3.3,13.842,2.1
		c4.5-1.2,8.272-4.243,11.828-7.114c1.757-1.414,3.043-3.643,3.986-6.086c3.643,7.157,11.4,16.414,27.728,22.328
		c6.428,2.357,13.414,2.186,19.5-0.343c2.4,13.542,7.928,23.743,16.457,30.471C582.753,1001.857,580.225,1006.571,577.31,1011.5z
		 M449.856,947.73c5.872-22.671,19.028-32.828,26.313-36.856c0.343,1.843,0.986,3.857,1.929,6.643
		c1.329,3.943,7.457,1.928,6.129-2.057c-1.243-3.557-1.8-5.442-2.057-7.328c0.6-2.015,6.6-9.085,8.7-10.5
		c7.585-5.185,19.457-7.243,27.899-3.343c5.057,2.357,9.043,7.243,12.471,11.443c2.571,3.171,7.586-0.814,4.971-4.029
		c-1.329-1.671-2.443-2.957-3.386-4.028c1.286-1.2,2.486-2.572,3.9-3.6c7.714-5.7,14.743-1.286,23.185,5.143
		c1.671,1.286,3.385,2.7,5.614,3c3.943,0.557,7.886-1.714,11.914-1.5c4.114,0.215,8.142,1.671,11.528,4.029
		c5.657,3.9,8.486,9.514,9.128,16.286c0.171,1.799,0.086,3.643-0.171,5.399c-0.557,3.728-1.929,7.329-4.028,10.414
		c-1.415,2.057,0.171,5.014,2.657,5.014c1.029,0,2.057-0.471,2.657-1.415c2.143-3.128,3.685-6.771,4.543-10.542
		c1.586,0.729,3.214,1.114,4.885,1.586c9.043,2.571,15.899,10.585,16.628,19.456c0.771,9.514-5.829,19.8-14.485,22.414
		c-2.4,0.729-3.086,3.986-1.072,5.571c2.186,1.757,3.558,4.886,3.558,8.014c-0.043,1.5-0.386,4.243-2.7,6.043
		c-5.057,3.857-12.385,4.886-17.014,2.4c-10.885-5.872-17.442-17.271-19.456-33.813c-0.3-2.357-3-3.557-4.971-2.272
		c-5.143,3.343-12.042,4.071-18.042,1.886c-18.257-6.643-24.128-17.614-25.971-23.528c-1.886-5.957-1.157-10.885,0.3-12.942
		c2.4-3.386-2.829-7.071-5.229-3.685c-2.871,4.071-2.571,9.385-3.257,14.099c-0.6,3.9-1.114,8.229-4.157,11.143
		c-2.786,2.572-7.757,6.643-11.872,5.786c-1.928-0.386-3.9-0.857-5.7-1.543c0.643-3.686-0.171-7.971-0.857-9.942
		c-2.186-5.914-7.757-9.557-14.143-8.786c-4.886,0.6-8.614,4.071-10.886,8.229c-2.443,4.457-1.671,9.685-1.414,14.528
		c0.3,5.358,3.086,14.915,3.214,15.986c-1.757,2.7-13.628,9-18.171,10.543C450.414,978.201,444.414,968.773,449.856,947.73z
		 M457.785,986c6.128-2.571,12.386-5.957,17.786-11.571c1.414,0.128,2.271,0.429,2.528,0.6c-2.914,9.643-2.443,18.214,1.5,25.414
		c5.443,9.986,17.185,17.443,36.042,22.799c6.385,1.801,15.085,4.286,18.471,11.143c1.5,3.043,4.8,6.686,12,6.686
		c4.628,0,9.728-1.542,13.714-3.128c-5.229,12.042-14.399,25.199-16.242,27.557c-6.515,8.442-15.171,12.042-29.057,12.085
		c-12.257,0-31.285-6.985-43.928-20.356c-8.397-8.874-16.711-18.728-20.739-30.457c-3.657-10.651-2.115-21.779,2.722-31.788
		C454.088,991.865,455.857,988.876,457.785,986z M461.299,1079.084c6.643,5.186,16.114,8.229,24.342,7.414
		c-0.3,2.314-0.643,4.629-0.942,6.9c-0.086,0-0.129,0.042-0.215,0.085c-6.042,1.071-24.17-4.671-24.17-4.671
		C460.528,1086.67,461.085,1082.17,461.299,1079.084z M456.585,1050.928c2.786,3.557,5.957,7.114,9.343,10.714
		c7.114,7.543,15.728,13.028,24.213,16.714c-0.514,0.343-1.028,0.686-1.585,1.071c-0.043,0-0.043,0-0.086,0
		c-1.671,0.515-3.557,0.771-5.571,0.771c-8.186,0-17.314-4.328-21.728-10.285c0-0.043-0.043-0.043-0.043-0.086
		C460.057,1067.256,458.256,1059.284,456.585,1050.928z M492.37,1084.569c1.671-1.114,3.214-2.356,4.586-3.643
		c2.4,0.771,4.714,1.371,6.985,1.843l-20.1,97.498l-14.4,22.327C480.927,1165.182,486.884,1125.411,492.37,1084.569z
		 M444.542,1030.742c0.814,2.186,1.8,4.329,2.958,6.472c1.071,6.085,5.014,28.456,7.757,35.099
		c-2.614,45.042-9.771,87.77-21.385,127.669l1.071-41.871c0.086-0.472,7.843-46.799,9.386-67.326
		c1.5-20.442-4.843-51.214-7.071-61.07C439.957,1029.843,442.399,1030.229,444.542,1030.742z M286.018,1341.063
		c0.043-4.243,0.086-8.657,0.086-13.157c7.928-0.343,34.67,0.686,51.642,1.543c0,0.558-0.771,10.8-0.771,10.8L286.018,1341.063z
		 M343.745,1360.349c0.214,0.729,5.7,17.313,12.985,22.971c0.6,0.429,1.072,0.643,1.072,0.9c-0.257,4.757-7.585,0.643-8.443,0.042
		c-2.228-1.542-6.899-6.257-8.528-7.971c-1.971-2.1-5.614-0.557-5.528,2.314c0.257,7.886-4.371,38.956-10.8,45.642
		c-0.514,0.558-0.9,0.729-1.029,0.771c-7.114-0.3-15.899-4.972-21.856-11.7c-4.714-5.314-6.385-11.828-6.6-17.185
		c-1.757-16.843-2.529-41.999,0.943-48.6h37.456C337.23,1350.792,342.759,1357.349,343.745,1360.349z M371.087,1342.777
		c-3.085-1.157-5.786-1.929-8.4-2.7c-5.442-1.542-10.585-3-18.6-8.057l10.714-134.825c0,0,69.384-92.483,69.641-92.826
		c2.485-3.3-2.614-7.2-5.143-3.857l-67.67,90.213c-0.472-0.258-1.071-0.429-1.843-0.515c0,0-21.128-2.357-21.214-2.357
		c-4.114-0.471-4.843,6-0.685,6.386l19.499,2.143c0.257,0.343,0.6,0.601,0.943,0.814l-10.157,128.012
		c-0.043-0.043-41.057-2.015-52.027-1.543c0.6-64.885,1.928-147.683,4.028-155.396c4.5-6.171,71.87-98.141,100.112-124.325
		c16.114-10.114,31.028-13.972,42.556-14.271c1.886,8.4,8.742,40.456,7.2,60.77c-1.5,20.357-9.257,66.471-9.343,67.241
		l-1.543,57.599c-4.843,14.957-10.371,29.485-16.543,43.542c-5.185,11.914-11.485,22.242-17.399,32.271
		C384.93,1308.578,372.63,1339.521,371.087,1342.777z M384.544,1323.921c4.928-10.757,10.628-20.271,16.199-29.528
		c6.086-10.156,12.386-20.699,17.786-32.999c22.071-50.441,36.042-106.626,41.57-167.31c3.6,1.157,15.899,3.899,23.957,3.942
		c-5.229,37.413-11.357,73.798-22.328,107.912c-4.243,13.07-22.714,54.727-25.842,61.97c-9.515,21.984-17.1,39.513-31.071,63.941
		C402.629,1330.992,384.972,1324.135,384.544,1323.921z M633.88,1255.266l-0.042,0.171l-3.557,16.586
		c-3.386-0.771-9.3-2.187-16.714-4.157c1.458-13.457,4.843-26.528,10.072-39.042c1.071-2.528-2.872-4.2-3.943-1.629
		c-5.314,12.643-8.743,25.972-10.286,39.557c-27.77-7.586-71.741-21.686-87.598-38.742c-3.043-3.257-12.9-20.742-19.157-32.399
		c7.543-22.456,13.8-46.284,16.714-68.912c0.514-4.028-5.829-4.972-6.343-0.814c-10.028,78.341-59.441,166.539-60.941,169.067
		c-0.214,0.3-0.428,0.686-0.557,1.071l-17.571,57.813c-0.086,0.129-0.257,0.258-0.472,0.386c-0.3,0.172-0.643,0.344-1.2,0.515
		c-4.285,1.243-15.642,1.071-29.056-3.6c1.029-3.043,3.557-8.957,5.872-13.929c15-25.885,22.842-43.927,32.699-66.77
		c3.128-7.2,18.428-41.699,21.985-51.127l23.871-37.071l20.528-98.697c2.272,0.3,7.071,0.472,7.071,0.472l39.899,102.726
		c-1.114,1.072-2.657,2.571-4.628,4.5c-2.829,2.743-6,5.871-7.757,7.414c-3,2.614,1.071,7.543,4.2,4.843
		c1.886-1.671,5.014-4.714,8.057-7.671c1.714-1.672,3.729-3.643,4.971-4.758l80.484,33.686l-0.728,3.386L633.88,1255.266z
		 M645.966,1269.708c-0.386,1.8-0.386,3.643,0,5.357c-1.971-0.687-6.557-2.529-9.128-3.771c0.3-4.243,6.214-33.813,8.442-39.685
		c0.686-1.801,1.5-3.857,2.828-5.314c1.114-1.2,2.7-2.143,4.372-3.129c6.257-3.686,11.828-11.143,15-15.471
		c1.029-1.414,4.286-4.5,4.414-0.9c0.129,4.243-1.029,8.829-2.185,11.314c-0.6,1.285-1.629,2.571-2.743,3.985
		c-2.4,3-5.357,6.771-3.943,11.571c-2.1,0.514-4.414,4.371-5.786,6.729C652.095,1249.565,648.28,1259.422,645.966,1269.708z
		 M655.351,1288.437c-1.243-0.515-2.185-1.501-2.742-2.7c-0.215-0.515-0.343-0.986-0.343-1.543c0.686,0.386,6.3,2.571,8.7,3.3
		C659.68,1288.864,657.708,1289.422,655.351,1288.437z M691.437,1246.009c0.557,2.957,0.128,6.257-0.257,9.471
		c-0.729,5.657-7.114,21.557-8.614,23.528c-2.357,2.957-4.757,4.371-8.571,4.242c-5.057-0.171-10.371-1.414-17.271-4.028
		c-3.3-1.285-5.228-4.757-4.457-8.1c2.143-9.686,5.743-18.942,10.585-27.557c2.143-3.771,4.671-4.971,9-4.971
		C681.494,1238.595,691.008,1243.608,691.437,1246.009z M731.721,1168.91c-7.456,18.086-21.642,31.242-33.727,31.242
		c-10.157,0-15.557-9.6-17.014-18.729c-1.5-9.471,0.128-20.699,4.585-31.542c7.457-18.042,21.643-31.198,33.728-31.198
		c10.328,0,15.557,9.728,16.971,18.728C737.807,1146.882,736.178,1158.068,731.721,1168.91z"/>
</g>
</svg>
