<?xml version="1.0" standalone="no"?>
<!DOCTYPE svg PUBLIC "-//W3C//DTD SVG 20010904//EN"
 "http://www.w3.org/TR/2001/REC-SVG-20010904/DTD/svg10.dtd">
<svg version="1.0" xmlns="http://www.w3.org/2000/svg"
 width="1501.000000pt" height="1501.000000pt" viewBox="0 0 1501.000000 1501.000000"
 preserveAspectRatio="xMidYMid meet">

<g transform="translate(0.000000,1501.000000) scale(0.100000,-0.100000)"
fill="#000000" stroke="none">
<path d="M12 11453 c1 -1957 3 -3540 5 -3518 1 22 7 103 13 180 110 1460 679
2899 1603 4058 373 469 831 919 1301 1281 1222 941 2704 1481 4251 1549 39 2
-1560 4 -3552 5 l-3623 2 2 -3557z"/>
<path d="M7825 15003 c1746 -77 3395 -751 4695 -1919 161 -144 496 -484 635
-643 984 -1130 1602 -2506 1790 -3986 13 -104 29 -255 35 -335 5 -80 12 -163
13 -185 2 -22 4 1561 5 3518 l2 3557 -3622 -2 c-1993 -1 -3591 -3 -3553 -5z"/>
<path d="M11 3568 l-1 -3558 3588 2 c1973 1 3565 3 3537 5 -298 18 -528 41
-775 79 -2073 317 -3923 1498 -5098 3255 -723 1083 -1150 2340 -1241 3654 -4
67 -9 -1460 -10 -3437z"/>
<path d="M14986 6991 c-8 -163 -39 -439 -72 -651 -369 -2379 -1889 -4456
-4054 -5540 -924 -462 -1938 -729 -2975 -783 -33 -2 1554 -4 3528 -5 l3587 -2
0 3555 c0 1955 -2 3555 -4 3555 -1 0 -6 -58 -10 -129z"/>
</g>
</svg>
